<?xml version="1.0" encoding="UTF-8" standalone="no"?>
<!-- Created with Inkscape (http://www.inkscape.org/) -->

<svg
   xmlns:dc="http://purl.org/dc/elements/1.1/"
   xmlns:cc="http://creativecommons.org/ns#"
   xmlns:rdf="http://www.w3.org/1999/02/22-rdf-syntax-ns#"
   xmlns:svg="http://www.w3.org/2000/svg"
   xmlns="http://www.w3.org/2000/svg"
   xmlns:sodipodi="http://sodipodi.sourceforge.net/DTD/sodipodi-0.dtd"
   xmlns:inkscape="http://www.inkscape.org/namespaces/inkscape"
   version="1.1"
   id="svg2"
   width="1460.3618"
   height="1015.4418"
   viewBox="0 0 1460.3618 1015.4418"
   sodipodi:docname="identification-documents.svg"
   inkscape:version="0.92.3 (2405546, 2018-03-11)">
  <metadata
     id="metadata8">
    <rdf:RDF>
      <cc:Work
         rdf:about="">
        <dc:format>image/svg+xml</dc:format>
        <dc:type
           rdf:resource="http://purl.org/dc/dcmitype/StillImage" />
        <dc:title></dc:title>
      </cc:Work>
    </rdf:RDF>
  </metadata>
  <defs
     id="defs6" />
  <sodipodi:namedview
     pagecolor="#ffffff"
     bordercolor="#666666"
     borderopacity="1"
     objecttolerance="10"
     gridtolerance="10"
     guidetolerance="10"
     inkscape:pageopacity="0"
     inkscape:pageshadow="2"
     inkscape:window-width="1366"
     inkscape:window-height="715"
     id="namedview4"
     showgrid="false"
     fit-margin-top="0"
     fit-margin-left="0"
     fit-margin-right="0"
     fit-margin-bottom="0"
     inkscape:zoom="0.1475"
     inkscape:cx="736.5"
     inkscape:cy="474.47777"
     inkscape:window-x="-8"
     inkscape:window-y="-8"
     inkscape:window-maximized="1"
     inkscape:current-layer="svg2" />
  <path
     style="fill:#020202"
     d="m 115.5,1014.8104 c -9.97234,-0.8993 -22.987517,-3.8479 -32.053127,-7.2616 C 40.682573,991.44587 10.34451,955.13317 1.78632,909.80627 0.09031,900.82367 0,880.47747 0,507.34532 0,140.13353 0.11266,113.75092 1.71686,105.28691 11.97943,51.140074 52.844843,10.539534 106.36431,1.3177239 113.95732,0.00938393 189.73823,-0.13914607 734,0.08752393 l 619,0.2578 10,2.71105997 c 24.6484,6.68233 42.6735,16.9022701 59.5375,33.7567901 21.0708,21.05881 33.5845,47.01144 36.9266,76.583146 0.819,7.24637 1.0402,116.16342 0.8144,400.949 l -0.3099,391.00005 -2.6255,10.5 c -6.6744,26.6933 -18.2385,46.7441 -37.444,64.9238 -17.3721,16.4441 -36.9553,26.59943 -62.3991,32.35843 l -9.5,2.1502 -612,0.1496 c -336.6,0.082 -615.825,-0.1954 -620.5,-0.617 z M 1347,950.34597 c 9.2919,-1.9441 21.6695,-8.1847 28.692,-14.466 9.6578,-8.6384 17.4377,-22.2349 19.7606,-34.5346 0.8353,-4.4226 1.0562,-108.9264 0.8403,-397.50005 l -0.2929,-391.5 -2.6228,-6.74155 c -7.6296,-19.610696 -21.3939,-33.108706 -40.2988,-39.519146 L 1345,63.345324 734,63.084234 c -539.85694,-0.23069 -611.93024,-0.0863 -618.98924,1.24013 -22.187837,4.16919 -40.942747,20.49164 -48.283157,42.020956 l -2.7276,8 -0.25753,390.27785 c -0.28157,426.6963 -0.6844,396.7417 5.51759,410.2932 8.10385,17.7071 24.84715,31.3687 43.370797,35.388 9.88363,2.1446 1224.12264,2.1856 1234.36914,0.042 z M 211.83245,822.99827 C 198.88884,818.51537 190.5,806.53877 190.5,792.54217 c 0,-14.8471 5.9092,-39.1153 13.45759,-55.26855 19.41104,-41.53844 49.55593,-64.68108 123.04241,-94.46128 33.05567,-13.39572 46.0774,-19.81415 52.95907,-26.1036 6.9048,-6.31061 7.5439,-8.56382 7.47772,-26.36342 -0.0736,-19.80284 -0.17179,-20.12793 -8.10614,-26.84351 -10.63661,-9.00276 -18.09327,-21.81704 -25.25591,-43.40234 -2.43162,-7.32792 -3.23096,-8.60114 -7.18051,-11.43749 -9.71124,-6.97408 -20.15453,-24.35259 -24.52803,-40.81666 -1.81429,-6.82991 -2.26715,-11.25073 -2.30487,-22.5 -0.0518,-15.46097 1.24128,-22.14199 6.44663,-33.30718 l 2.94048,-6.30718 -1.52361,-7.19282 c -3.99637,-18.86649 -5.602,-32.8358 -6.13592,-53.38409 -0.931,-35.82935 3.39647,-58.28026 15.8725,-82.34651 6.51008,-12.55796 12.76029,-20.74289 24.10302,-31.564 25.11591,-23.96092 57.1786,-37.03304 99.59777,-40.60654 33.83501,-2.85034 60.62812,6.15705 84.72594,28.48344 5.63244,5.2184 6.68033,5.76225 14,7.26589 22.73025,4.66935 40.41511,14.70828 51.25076,29.09282 14.97226,19.876 22.1611,45.40332 22.1611,78.69329 0,22.64421 -3.34792,44.67037 -11.15375,73.38123 l -2.23167,8.20835 4.65285,9.79165 c 6.19534,13.03772 7.08625,17.15873 6.50183,30.07488 -0.88062,19.46216 -8.19326,35.03942 -22.78247,48.53076 l -7.36848,6.81399 -3.35589,11.18601 c -1.84573,6.1523 -5.54044,15.69123 -8.21046,21.19762 -4.91399,10.13411 -7.84362,13.58346 -19.94938,23.48839 l -4.27769,3.5 -0.56031,19.08344 -0.56032,19.08345 3.84067,4.25117 c 7.80756,8.64202 17.83292,13.94888 54.95507,29.09007 48.37345,19.73031 66.66622,29.40754 87.08625,46.07033 30.10257,24.56378 49.21347,61.93399 51.14464,100.01019 0.42542,8.3879 0.18278,11.6552 -1.16741,15.7203 -2.15222,6.4797 -9.20553,14.435 -15.95588,17.9964 l -5.1076,2.6947 -261,0.2213 c -248.51136,0.2107 -261.24726,0.1356 -266.16755,-1.5684 z m 469.83569,-68.9029 c -2.16269,-6.2853 -3.64694,-8.7222 -7.85361,-12.8941 C 663.25232,730.72642 643.30765,719.48062 612,706.34722 c -65.12389,-27.3191 -83.6565,-38.62412 -98.48763,-60.0781 -8.70726,-12.5955 -11.09798,-19.48818 -12.02791,-34.67765 -1.0028,-16.37974 0.38374,-58.00731 2.08997,-62.74615 2.04468,-5.67883 5.54042,-10.57953 10.09504,-14.15227 16.18058,-12.69239 25.60429,-27.13379 29.36156,-44.99524 2.03911,-9.69358 4.44024,-14.744 9.2297,-19.4133 2.22231,-2.16655 6.10519,-5.94903 8.62862,-8.40549 9.34641,-9.09839 9.59154,-14.39041 1.42496,-30.76241 -4.62999,-9.28199 -5.10184,-10.85544 -5.09806,-17 0.003,-4.41113 0.92882,-9.87578 2.65697,-15.67806 6.09778,-20.47326 9.58676,-43.79157 9.58989,-64.09323 0.003,-21.86146 -3.93314,-35.53059 -12.50877,-43.43532 -4.50501,-4.15257 -5.24248,-4.37766 -19.66326,-6.00147 -12.29313,-1.38424 -19.53752,-5.47397 -25.78752,-14.55804 -3.83971,-5.58083 -11.81988,-10.78275 -21.61217,-14.08803 -7.51981,-2.53824 -8.57415,-2.63786 -22.39139,-2.11568 -39.49674,1.49264 -61.33982,12.79396 -73.39794,37.97511 -5.4836,11.45147 -7.32291,18.72943 -8.81903,34.89599 -1.82952,19.76929 1.06079,48.59652 7.35202,73.32715 3.61923,14.22708 2.21544,24.10772 -4.71624,33.19563 -4.28138,5.61318 -5.28094,9.16032 -4.38867,15.57412 0.87761,6.30842 4.94728,14.27121 7.74815,15.16017 2.66639,0.84628 9.03187,7.38005 11.68125,11.99007 1.28972,2.24416 3.25113,7.72895 4.35868,12.18841 2.2654,9.12146 7.22174,19.62722 12.72145,26.96518 4.74973,6.3373 13.57525,15.42671 14.97882,15.42671 2.20538,0 9.84351,8.66753 12.33728,14 2.45793,5.25583 2.61331,6.65426 3.49986,31.5 0.61935,17.35761 0.58222,29.95761 -0.1117,37.90616 -0.99393,11.38486 -1.26065,12.34812 -6.09163,22 -5.34017,10.66921 -11.81201,18.87726 -21.39958,27.14045 -13.8538,11.94012 -30.64834,20.79776 -75.75272,39.95289 -31.30732,13.2957 -43.87243,19.4977 -56,27.6407 -12.23538,8.2154 -17.33742,13.82585 -20.44402,22.48085 -1.40579,3.9165 -2.55598,7.404 -2.55598,7.75 0,0.3459 93.56283,0.629 207.91741,0.629 h 207.9174 z M 845.5,696.91019 c -8.33389,-2.54424 -15.9077,-8.96264 -20.1368,-17.06487 -3.34148,-6.40169 -3.37257,-20.37415 -0.0603,-27.08604 2.92186,-5.92074 9.23492,-12.25926 15.07667,-15.13749 L 845,635.34532 h 201.5 201.5 l 5.3554,2.9663 c 11.3708,6.29815 18.1876,19.03029 16.6742,31.14333 -1.0076,8.06396 -5.9946,17.01809 -12.0443,21.62518 -9.5751,7.29184 6.8731,6.77464 -212.4168,6.67924 C 936.9058,697.71207 846.875,697.32996 845.5,696.91019 Z m 3.64255,-158.23462 c -9.7533,-1.39591 -19.34198,-8.53183 -23.90493,-17.7901 -1.81787,-3.68848 -2.23589,-6.22844 -2.22841,-13.54015 0.008,-7.80676 0.36113,-9.66291 2.6636,-14 3.17875,-5.98772 8.68982,-11.43069 14.82719,-14.64398 l 4.5,-2.35602 199,-0.262 c 221.7463,-0.29194 204.206,-0.83542 214.088,6.63341 5.9421,4.49106 10.9391,13.49583 11.9416,21.51896 1.5134,12.11304 -5.3034,24.84518 -16.6742,31.14333 l -5.3554,2.9663 -197.089,0.5 c -108.3989,0.275 -199.1947,0.19861 -201.76845,-0.16975 z m -2.7132,-159.19134 c -28.58895,-7.74767 -32.58594,-46.34799 -6.14379,-59.33276 L 846,317.34532 h 199.5 c 194.588,0 199.623,0.0475 204.4971,1.92707 6.609,2.54868 14.6971,10.30588 17.5909,16.87114 3.4583,7.84607 3.2955,18.35378 -0.4015,25.91017 -3.3388,6.82431 -10.8176,13.87743 -17.4423,16.44959 -4.5451,1.76474 -13.0103,1.84995 -201.7442,2.03081 -153.99705,0.14758 -197.99772,-0.0816 -201.57065,-1.04987 z"
     id="path12"
     inkscape:connector-curvature="0" />
</svg>
