<?xml version="1.0" encoding="UTF-8" standalone="no"?>
<!-- Created with Inkscape (http://www.inkscape.org/) -->

<svg
   xmlns:dc="http://purl.org/dc/elements/1.1/"
   xmlns:cc="http://creativecommons.org/ns#"
   xmlns:rdf="http://www.w3.org/1999/02/22-rdf-syntax-ns#"
   xmlns:svg="http://www.w3.org/2000/svg"
   xmlns="http://www.w3.org/2000/svg"
   xmlns:sodipodi="http://sodipodi.sourceforge.net/DTD/sodipodi-0.dtd"
   xmlns:inkscape="http://www.inkscape.org/namespaces/inkscape"
   version="1.1"
   id="svg2"
   width="266.66666"
   height="266.66666"
   viewBox="0 0 266.66666 266.66666"
   sodipodi:docname="download_black.svg"
   inkscape:version="0.92.3 (2405546, 2018-03-11)">
  <metadata
     id="metadata8">
    <rdf:RDF>
      <cc:Work
         rdf:about="">
        <dc:format>image/svg+xml</dc:format>
        <dc:type
           rdf:resource="http://purl.org/dc/dcmitype/StillImage" />
        <dc:title></dc:title>
      </cc:Work>
    </rdf:RDF>
  </metadata>
  <defs
     id="defs6" />
  <sodipodi:namedview
     pagecolor="#ffffff"
     bordercolor="#666666"
     borderopacity="1"
     objecttolerance="10"
     gridtolerance="10"
     guidetolerance="10"
     inkscape:pageopacity="0"
     inkscape:pageshadow="2"
     inkscape:window-width="1366"
     inkscape:window-height="715"
     id="namedview4"
     showgrid="false"
     inkscape:zoom="0.88500003"
     inkscape:cx="133.33333"
     inkscape:cy="133.33333"
     inkscape:window-x="-8"
     inkscape:window-y="-8"
     inkscape:window-maximized="1"
     inkscape:current-layer="svg2" />
  <path
     style="fill:#000000;stroke-width:1.33333325"
     d="m 25.113726,247.5603 c -2.63043,-3.34404 -2.76344,-5.13801 -2.76344,-37.2706 0,-22.24929 0.5135,-34.88446 1.50629,-37.0634 3.07278,-6.74401 12.98676,-7.75669 18.4568,-1.88529 2.53189,2.71765 2.70357,4.62172 2.70357,29.98385 v 27.08192 h 82.666674 82.66665 l 0.0424,-27 c 0.0444,-28.25794 0.30618,-29.64138 6.20328,-32.78221 4.6955,-2.50083 8.36364,-1.8136 12.52355,2.34632 l 3.89744,3.89743 v 34.58942 c 0,32.97425 -0.12907,34.75347 -2.76344,38.10256 l -2.76344,3.51315 H 127.68362 27.877166 Z m 72.31442,-100.77522 c -25.44315,-25.32175 -25.74453,-25.68856 -25.74453,-31.33333 0,-7.61687 3.39249,-11.04498 10.93023,-11.04498 5.32258,0 6.27016,0.67327 19.333344,13.73644 l 13.73643,13.73643 V 77.008843 c 0,-56.544087 0.45389,-61.990664 5.38592,-64.630209 4.17392,-2.233812 11.72199,-1.530619 14.61407,1.361479 2.58529,2.585289 2.66667,4.444443 2.66667,60.923182 v 58.256515 l 14.46741,-14.25652 c 13.70467,-13.50489 14.75909,-14.25652 20,-14.25652 7.469,0 10.86592,3.4529 10.86592,11.04498 0,5.64477 -0.30139,6.01158 -25.74452,31.33333 -23.26257,23.15158 -26.17942,25.6217 -30.25547,25.6217 -4.07606,0 -6.9929,-2.47012 -30.255474,-25.6217 z"
     id="path12"
     inkscape:connector-curvature="0" />
</svg>
