<?xml version="1.0" encoding="UTF-8" standalone="no"?>
<!-- Creator: CorelDRAW X7 -->

<svg
   xmlns:dc="http://purl.org/dc/elements/1.1/"
   xmlns:cc="http://creativecommons.org/ns#"
   xmlns:rdf="http://www.w3.org/1999/02/22-rdf-syntax-ns#"
   xmlns:svg="http://www.w3.org/2000/svg"
   xmlns="http://www.w3.org/2000/svg"
   xmlns:sodipodi="http://sodipodi.sourceforge.net/DTD/sodipodi-0.dtd"
   xmlns:inkscape="http://www.inkscape.org/namespaces/inkscape"
   xml:space="preserve"
   width="212.09428mm"
   height="79.715782mm"
   version="1.1"
   style="clip-rule:evenodd;fill-rule:evenodd;image-rendering:optimizeQuality;shape-rendering:geometricPrecision;text-rendering:geometricPrecision"
   viewBox="0 0 21209.428 7971.5782"
   id="svg33"
   sodipodi:docname="logo.svg"
   inkscape:version="0.92.3 (2405546, 2018-03-11)"><metadata
   id="metadata37"><rdf:RDF><cc:Work
       rdf:about=""><dc:format>image/svg+xml</dc:format><dc:type
         rdf:resource="http://purl.org/dc/dcmitype/StillImage" /><dc:title></dc:title></cc:Work></rdf:RDF></metadata><sodipodi:namedview
   pagecolor="#ffffff"
   bordercolor="#666666"
   borderopacity="1"
   objecttolerance="10"
   gridtolerance="10"
   guidetolerance="10"
   inkscape:pageopacity="0"
   inkscape:pageshadow="2"
   inkscape:window-width="1366"
   inkscape:window-height="715"
   id="namedview35"
   showgrid="false"
   inkscape:zoom="0.5946522"
   inkscape:cx="459.69499"
   inkscape:cy="131.38178"
   inkscape:window-x="-8"
   inkscape:window-y="-8"
   inkscape:window-maximized="1"
   inkscape:current-layer="svg33"
   fit-margin-top="0"
   fit-margin-left="0"
   fit-margin-right="0"
   fit-margin-bottom="0" />
 <defs
   id="defs4">
  <style
   type="text/css"
   id="style2">
   <![CDATA[
    .str0 {stroke:#B0CB1F;stroke-width:7.62}
    .fil2 {fill:#FEFEFE}
    .fil1 {fill:#B0CB1F}
    .fil0 {fill:#1C1B17}
    .fil4 {fill:#FEFEFE;fill-rule:nonzero}
    .fil3 {fill:#B0CB1F;fill-rule:nonzero}
   ]]>
  </style>
 </defs>
 <g
   id="Layer_x0020_1"
   transform="matrix(1.239158,0,0,1.6117222,-2360.596,-21753.415)">
  <metadata
   id="CorelCorpID_0Corel-Layer" />
  <polygon
   class="fil0"
   points="1905,18432 1905,13497 19021,13497 19021,18432 "
   id="polygon7"
   style="fill:#1c1b17" />
  <path
   class="fil1"
   d="m 4330,15831 c 192,49 329,167 304,264 -25,96 -202,133 -394,84 -193,-50 -329,-168 -304,-264 25,-96 201,-134 394,-84 z"
   id="path9"
   inkscape:connector-curvature="0"
   style="fill:#b0cb1f" />
  <path
   class="fil1"
   d="m 3757,16341 c 1,-227 190,-203 222,-318 l 576,126 c 104,60 40,216 112,322 -99,-69 -87,-139 -157,-171 -58,-26 -97,131 -49,423 -16,-158 -249,-295 -147,-477 -109,33 -97,252 -197,303 66,-116 -16,-190 42,-292 -170,74 -28,217 -286,506 175,-349 -35,-390 130,-612 -59,50 -224,77 -246,190 z"
   id="path11"
   inkscape:connector-curvature="0"
   style="fill:#b0cb1f" />
  <path
   class="fil1"
   d="m 4134,16165 c -374,704 -655,1454 -786,2278 h 102 c 97,-781 359,-1539 848,-2263 z"
   id="path13"
   inkscape:connector-curvature="0"
   style="fill:#b0cb1f" />
  <path
   class="fil2"
   d="m 4391,14090 c 809,0 1465,654 1465,1461 0,808 -656,1462 -1465,1462 -810,0 -1466,-654 -1466,-1462 0,-807 656,-1461 1466,-1461 z m -35,263 c 721,0 1305,583 1305,1302 0,578 -377,1067 -898,1238 208,-57 405,-167 569,-329 512,-505 518,-1329 13,-1841 -349,-354 -851,-466 -1297,-334 99,-23 202,-36 308,-36 z m -100,2601 c -576,-44 -1048,-461 -1173,-1009 -134,-475 -13,-1006 363,-1376 549,-542 1434,-534 1977,16 543,551 538,1436 -11,1978 -317,312 -745,442 -1156,391 z"
   id="path15"
   inkscape:connector-curvature="0"
   style="fill:#fefefe" />
  <path
   class="fil2"
   d="m 4330,16958 c 669,0 1211,-541 1211,-1208 0,-667 -542,-1207 -1211,-1207 -668,0 -1210,540 -1210,1207 0,667 542,1208 1210,1208 z m -37,-2383 c 621,0 1125,504 1125,1126 0,621 -504,1125 -1125,1125 -622,0 -1126,-504 -1126,-1125 0,-622 504,-1126 1126,-1126 z"
   id="path17"
   inkscape:connector-curvature="0"
   style="fill:#fefefe" />
  <path
   class="fil2"
   d="m 4015,14601 c 34,133 106,527 156,1435 l 28,-65 c -5,12 -77,-1166 -69,-1389 z"
   id="path19"
   inkscape:connector-curvature="0"
   style="fill:#fefefe" />
  <path
   class="fil2"
   d="m 4349,14139 c 14,178 -28,672 -96,1770 l 27,-79 c 6,-15 141,-1427 182,-1700 z"
   id="path21"
   inkscape:connector-curvature="0"
   style="fill:#fefefe" />
  <path
   class="fil3 str0"
   d="m 6556,15910 h -99 c -14,0 -20,6 -20,19 v 43 c 0,13 6,19 20,19 l 99,10 v 714 c 0,14 6,20 19,20 h 61 c 14,0 20,-6 20,-20 v -714 h 252 c 13,0 19,-8 19,-22 v -50 c 0,-13 -6,-19 -19,-19 h -252 v -67 c 0,-104 74,-163 173,-163 80,0 135,13 188,45 v 990 c 0,14 6,20 20,20 h 60 c 14,0 20,-6 20,-20 v -1007 c 0,-10 -4,-18 -12,-25 -90,-69 -178,-93 -276,-93 -141,0 -273,91 -273,253 z m 1139,78 c 195,0 327,146 327,335 0,188 -132,333 -327,333 -192,0 -324,-145 -324,-333 0,-189 132,-335 324,-335 z m -426,335 c 0,245 187,424 426,424 243,0 428,-179 428,-424 0,-247 -185,-425 -428,-425 -239,0 -426,178 -426,425 z m 938,-413 c -14,0 -15,12 -14,18 l 257,784 c 4,17 16,23 29,23 h 95 c 14,0 24,-8 29,-24 l 188,-644 h 9 l 196,644 c 5,16 14,24 27,24 h 98 c 15,0 25,-9 30,-26 l 255,-780 c 4,-10 -2,-19 -14,-19 h -67 c -10,0 -22,6 -27,18 l -217,707 h -12 l -214,-709 c -3,-10 -11,-16 -23,-16 h -67 c -13,0 -22,6 -25,16 l -210,709 h -9 l -217,-703 c -5,-15 -15,-22 -29,-22 z m 1284,413 c 0,244 177,424 439,424 135,0 244,-42 335,-115 12,-9 14,-20 5,-30 l -31,-41 c -7,-9 -17,-11 -27,-3 -85,62 -166,98 -282,98 -195,0 -319,-124 -336,-287 h 726 c 12,0 18,-7 18,-19 v -27 c 0,-247 -176,-425 -416,-425 -247,0 -431,178 -431,425 z m 431,-335 c 178,0 299,125 316,290 h -645 c 16,-170 148,-290 329,-290 z m 587,-78 c -13,0 -19,7 -19,21 v 784 c 0,14 6,20 19,20 h 60 c 13,0 21,-6 21,-20 v -587 c 71,-91 155,-137 270,-137 114,0 197,52 235,166 3,10 9,13 20,10 l 62,-23 c 9,-3 12,-9 9,-19 -50,-152 -173,-227 -326,-227 -108,0 -197,39 -270,119 h -8 l -3,-86 c 0,-14 -6,-21 -20,-21 z m 1511,-12 c -201,0 -331,86 -331,218 0,168 165,206 335,225 167,20 278,49 278,156 0,96 -93,159 -267,159 -120,0 -223,-36 -313,-121 -9,-9 -18,-9 -27,2 l -37,50 c -7,10 -7,19 0,27 103,91 219,133 375,133 202,0 367,-85 367,-250 0,-174 -151,-222 -362,-251 -161,-20 -251,-43 -251,-130 0,-84 79,-129 229,-129 108,0 202,33 280,101 7,6 21,6 27,-1 l 38,-44 c 8,-9 8,-18 -2,-27 -97,-87 -217,-118 -339,-118 z m 575,12 -107,9 c -13,1 -19,9 -19,21 v 41 c 0,14 6,20 19,20 h 111 v 490 c 0,162 105,256 251,256 53,0 101,-11 148,-36 11,-6 14,-15 10,-26 l -19,-47 c -4,-11 -12,-14 -22,-8 -37,17 -72,26 -114,26 -96,0 -154,-60 -154,-169 v -486 h 254 c 14,0 20,-6 20,-20 v -50 c 0,-14 -6,-21 -20,-21 h -254 v -184 c 0,-13 -6,-19 -19,-19 h -47 c -14,0 -20,6 -20,19 z m 557,0 c -14,0 -20,7 -20,21 v 784 c 0,14 6,20 20,20 h 59 c 14,0 21,-6 21,-20 v -587 c 72,-91 155,-137 270,-137 114,0 198,52 236,166 3,10 9,13 19,10 l 63,-23 c 9,-3 12,-9 9,-19 -50,-152 -173,-227 -327,-227 -107,0 -197,39 -270,119 h -7 l -3,-86 c 0,-14 -6,-21 -20,-21 z m 769,413 c 0,244 178,424 439,424 135,0 244,-42 335,-115 12,-9 14,-20 5,-30 l -30,-41 c -8,-9 -17,-11 -28,-3 -85,62 -165,98 -282,98 -194,0 -319,-124 -336,-287 h 726 c 12,0 18,-7 18,-19 v -27 c 0,-247 -176,-425 -416,-425 -247,0 -431,178 -431,425 z m 431,-335 c 178,0 299,125 316,290 h -645 c 17,-170 149,-290 329,-290 z m 538,335 c 0,244 177,424 438,424 135,0 245,-42 336,-115 12,-9 13,-20 4,-30 l -30,-41 c -8,-9 -17,-11 -27,-3 -85,62 -166,98 -283,98 -194,0 -319,-124 -335,-287 h 725 c 12,0 19,-7 19,-19 v -27 c 0,-247 -177,-425 -416,-425 -248,0 -431,178 -431,425 z m 431,-335 c 177,0 299,125 315,290 h -645 c 17,-170 149,-290 330,-290 z m 610,-78 -106,9 c -14,1 -20,9 -20,21 v 41 c 0,14 6,20 20,20 h 110 v 490 c 0,162 105,256 251,256 53,0 101,-11 149,-36 10,-6 13,-15 9,-26 l -19,-47 c -4,-11 -12,-14 -22,-8 -37,17 -72,26 -114,26 -96,0 -153,-60 -153,-169 v -486 h 253 c 14,0 20,-6 20,-20 v -50 c 0,-14 -6,-21 -20,-21 h -253 v -184 c 0,-13 -7,-19 -20,-19 h -47 c -14,0 -20,6 -20,19 z"
   id="path23"
   inkscape:connector-curvature="0"
   style="fill:#b0cb1f;fill-rule:nonzero;stroke:#b0cb1f;stroke-width:7.61999989" />
  <g
   id="_2196602989360">
   <path
   class="fil4"
   d="m 8820,17649 37,-177 h -71 v -62 h 83 l 31,-151 h -114 v -63 h 127 l 36,-178 h 63 l -36,178 h 130 l 36,-178 h 63 l -37,178 h 73 v 63 h -85 l -31,151 h 116 v 62 h -129 l -36,177 h -63 l 37,-177 h -131 l -36,177 z m 112,-239 h 130 l 31,-151 h -130 z"
   id="path25"
   inkscape:connector-curvature="0"
   style="fill:#fefefe;fill-rule:nonzero" />
   <path
   class="fil4"
   d="m 9779,17542 3,103 c 0,8 3,11 11,11 h 25 c 8,0 11,-3 11,-11 l 5,-143 c 0,-8 -3,-11 -11,-11 h -45 v -401 c 0,-8 -4,-12 -11,-12 h -35 c -7,0 -11,4 -11,12 v 401 h -275 v -401 c 0,-8 -4,-12 -11,-12 h -34 c -8,0 -12,4 -12,12 v 441 c 0,8 4,11 12,11 z m 180,-413 h 191 c 48,0 75,25 75,65 0,41 -33,64 -71,64 h -195 z m 278,150 c 26,-16 44,-54 44,-85 0,-63 -49,-116 -132,-116 h -236 c -7,0 -11,3 -11,10 v 443 c 0,8 4,11 11,11 h 250 c 87,0 152,-65 152,-143 0,-48 -28,-101 -78,-117 z m -278,31 h 202 c 61,0 97,34 97,89 0,54 -39,91 -97,91 h -202 z m 415,0 c 0,137 100,239 247,239 76,0 137,-24 189,-65 6,-5 7,-11 2,-17 l -17,-23 c -4,-5 -9,-6 -15,-2 -48,35 -93,56 -159,56 -109,0 -179,-70 -189,-162 h 408 c 7,0 10,-4 10,-10 v -16 c 0,-139 -99,-239 -233,-239 -139,0 -243,100 -243,239 z m 243,-188 c 99,0 168,70 177,163 h -363 c 10,-96 84,-163 186,-163 z m 271,-44 c -8,0 -12,4 -12,12 v 27 c 0,8 4,12 12,12 h 167 v 401 c 0,8 5,12 12,12 h 33 c 7,0 12,-4 12,-12 v -401 h 167 c 8,0 12,-4 12,-12 v -27 c 0,-8 -4,-12 -12,-12 z m 668,44 c 109,0 184,82 184,188 0,106 -75,188 -184,188 -108,0 -182,-82 -182,-188 0,-106 74,-188 182,-188 z m -240,188 c 0,138 105,239 240,239 137,0 241,-101 241,-239 0,-139 -104,-239 -241,-239 -135,0 -240,100 -240,239 z m 561,-232 c -8,0 -12,4 -12,12 v 133 c 0,115 76,183 193,183 57,0 93,-7 140,-24 v 149 c 0,8 3,11 11,11 h 33 c 8,0 12,-3 12,-11 v -441 c 0,-8 -4,-12 -12,-12 h -33 c -8,0 -11,4 -11,12 v 242 c -45,17 -83,23 -140,23 -86,0 -136,-49 -136,-132 v -133 c 0,-8 -4,-12 -12,-12 z m 491,0 c -8,0 -11,3 -11,11 v 442 c 0,8 3,11 11,11 h 33 c 8,0 12,-3 12,-11 v -205 h 290 v 205 c 0,8 5,11 12,11 h 33 c 7,0 12,-3 12,-11 v -442 c 0,-8 -5,-11 -12,-11 h -33 c -7,0 -12,3 -12,11 v 186 h -290 v -186 c 0,-8 -4,-11 -12,-11 z m 828,330 c -41,58 -107,90 -182,90 -57,0 -117,-28 -117,-92 0,-49 38,-78 96,-87 l 203,-29 z m 12,61 29,70 c 2,6 10,7 16,5 l 27,-12 c 6,-3 6,-9 4,-13 l -6,-13 c -17,-36 -26,-75 -26,-115 v -171 c 0,-100 -86,-149 -184,-149 -69,0 -139,19 -194,63 -4,3 -4,8 -2,12 l 20,27 c 2,4 8,4 12,1 47,-37 103,-52 164,-52 72,0 128,36 128,98 v 21 l -209,28 c -81,11 -146,57 -146,137 0,78 59,143 175,143 75,0 138,-29 188,-80 z m 156,61 c -4,6 1,12 7,12 h 42 c 6,0 11,-3 16,-10 l 80,-129 h 183 v 128 c 0,8 4,11 11,11 h 35 c 7,0 11,-3 11,-11 v -442 c 0,-8 -4,-11 -11,-11 h -214 c -99,0 -173,70 -173,162 0,71 41,127 105,151 z m 328,-401 v 223 h -165 c -75,0 -119,-47 -119,-112 0,-63 44,-111 119,-111 z m 532,-51 c -5,0 -8,2 -11,8 l -148,381 h -8 l -171,-381 c -2,-6 -5,-8 -11,-8 h -46 c -7,0 -9,2 -6,8 l 209,452 -9,25 c -14,38 -49,66 -91,66 -4,0 -9,-1 -13,-1 -6,0 -9,3 -9,9 v 31 c 0,8 4,10 10,11 6,1 11,2 17,2 68,0 114,-49 139,-108 l 198,-487 c 3,-6 0,-8 -6,-8 z m 516,464 c 8,0 11,-3 11,-11 v -442 c 0,-8 -3,-11 -11,-11 h -295 c -7,0 -11,3 -12,9 l -48,354 c -5,36 -22,54 -50,54 -16,0 -30,-7 -42,-19 -4,-5 -8,-5 -12,0 l -24,25 c -4,4 -4,9 0,14 21,21 47,32 79,32 64,0 97,-39 105,-100 l 40,-318 h 214 v 402 c 0,8 4,11 11,11 z m 125,-464 c -8,0 -11,4 -11,12 v 441 c 0,8 3,11 11,11 h 38 c 6,0 11,-3 15,-7 l 142,-180 147,-196 7,1 -4,151 v 220 c 0,8 3,11 11,11 h 34 c 8,0 11,-3 11,-11 v -441 c 0,-8 -3,-12 -11,-12 h -37 c -7,0 -13,3 -18,9 l -105,133 -183,241 -6,-2 4,-150 v -219 c 0,-8 -3,-12 -11,-12 z m 893,464 3,103 c 0,8 3,11 11,11 h 25 c 8,0 11,-3 11,-11 l 5,-143 c 0,-8 -3,-11 -11,-11 h -45 v -401 c 0,-8 -4,-12 -11,-12 h -34 c -8,0 -12,4 -12,12 v 401 h -275 v -401 c 0,-8 -4,-12 -11,-12 h -34 c -8,0 -12,4 -12,12 v 441 c 0,8 4,11 12,11 z m 457,-134 c -41,58 -107,90 -182,90 -57,0 -117,-28 -117,-92 0,-49 39,-78 97,-87 l 202,-29 z m 13,61 28,70 c 3,6 10,7 16,5 l 28,-12 c 6,-3 6,-9 3,-13 l -6,-13 c -17,-36 -26,-75 -26,-115 v -171 c 0,-100 -86,-149 -184,-149 -68,0 -139,19 -194,63 -4,3 -4,8 -1,12 l 19,27 c 3,4 9,4 12,1 47,-37 103,-52 164,-52 73,0 128,36 128,98 v 21 l -209,28 c -81,11 -146,57 -146,137 0,78 59,143 175,143 75,0 138,-29 189,-80 z"
   id="path27"
   inkscape:connector-curvature="0"
   style="fill:#fefefe;fill-rule:nonzero" />
   <path
   class="fil4"
   d="m 6431,17073 c -8,0 -12,4 -12,12 v 27 c 0,8 4,12 12,12 h 167 v 401 c 0,8 4,12 12,12 h 33 c 7,0 12,-4 12,-12 v -401 h 167 c 8,0 12,-4 12,-12 v -27 c 0,-8 -4,-12 -12,-12 z m 527,51 h 192 c 47,0 75,26 75,66 0,41 -34,64 -71,64 h -196 z m 279,150 c 26,-16 44,-53 44,-84 0,-64 -50,-117 -132,-117 h -237 c -7,0 -10,4 -10,10 v 443 c 0,8 3,11 11,11 h 250 c 86,0 151,-64 151,-143 0,-47 -27,-100 -77,-116 z m -279,32 h 203 c 60,0 97,34 97,88 0,55 -39,91 -97,91 h -203 z m 656,-189 c 109,0 183,82 183,189 0,105 -74,187 -183,187 -109,0 -183,-82 -183,-187 0,-107 74,-189 183,-189 z m -240,189 c 0,138 105,238 240,238 136,0 240,-100 240,-238 0,-139 -104,-240 -240,-240 -135,0 -240,101 -240,240 z m 562,219 c -4,6 0,12 6,12 h 43 c 6,0 11,-3 15,-10 l 81,-128 h 183 v 127 c 0,8 4,11 11,11 h 34 c 8,0 11,-3 11,-11 v -442 c 0,-7 -3,-11 -11,-11 h -213 c -99,0 -173,71 -173,163 0,71 41,127 105,151 z m 328,-401 v 223 h -165 c -76,0 -119,-46 -119,-111 0,-64 43,-112 119,-112 z"
   id="path29"
   inkscape:connector-curvature="0"
   style="fill:#fefefe;fill-rule:nonzero" />
  </g>
 </g>
</svg>