<?xml version="1.0" encoding="UTF-8" standalone="no"?>
<!-- Created with Inkscape (http://www.inkscape.org/) -->

<svg
   xmlns:dc="http://purl.org/dc/elements/1.1/"
   xmlns:cc="http://creativecommons.org/ns#"
   xmlns:rdf="http://www.w3.org/1999/02/22-rdf-syntax-ns#"
   xmlns:svg="http://www.w3.org/2000/svg"
   xmlns="http://www.w3.org/2000/svg"
   xmlns:sodipodi="http://sodipodi.sourceforge.net/DTD/sodipodi-0.dtd"
   xmlns:inkscape="http://www.inkscape.org/namespaces/inkscape"
   width="210mm"
   height="297mm"
   viewBox="0 0 210 297"
   version="1.1"
   id="svg8"
   inkscape:version="0.92.3 (2405546, 2018-03-11)"
   sodipodi:docname="drawing.svg">
  <defs
     id="defs2" />
  <sodipodi:namedview
     id="base"
     pagecolor="#ffffff"
     bordercolor="#666666"
     borderopacity="1.0"
     inkscape:pageopacity="0.0"
     inkscape:pageshadow="2"
     inkscape:zoom="0.35"
     inkscape:cx="400"
     inkscape:cy="560"
     inkscape:document-units="mm"
     inkscape:current-layer="layer1"
     showgrid="false"
     inkscape:window-width="1366"
     inkscape:window-height="715"
     inkscape:window-x="-8"
     inkscape:window-y="-8"
     inkscape:window-maximized="1" />
  <metadata
     id="metadata5">
    <rdf:RDF>
      <cc:Work
         rdf:about="">
        <dc:format>image/svg+xml</dc:format>
        <dc:type
           rdf:resource="http://purl.org/dc/dcmitype/StillImage" />
        <dc:title></dc:title>
      </cc:Work>
    </rdf:RDF>
  </metadata>
  <g
     inkscape:label="Layer 1"
     inkscape:groupmode="layer"
     id="layer1">
    <g
       id="g20"
       transform="matrix(0.26458333,0,0,0.26458333,47.927381,93.951188)"
       style="fill:#ffffff">
	<path
   id="path10"
   d="m 284.5,182 c 0,15.74 -12.76,28.5 -28.5,28.5 v 0 c -15.74,0 -28.5,-12.76 -28.5,-28.5 v -49 c 0,-15.74 12.76,-28.5 28.5,-28.5 v 0 c 15.74,0 28.5,12.76 28.5,28.5 z"
   inkscape:connector-curvature="0"
   style="fill:#ffffff" />

	<g
   id="g18"
   style="fill:#ffffff">
		<path
   id="path12"
   d="m 274,88.035 c 15.071,6.217 25.557,19.987 25.557,35.988 v 67.953 c 0,16.001 -10.485,29.771 -25.557,35.988 V 264.5 H 421 V 141.806 C 421,72.325 362.797,16 291,16 h -17 z"
   inkscape:connector-curvature="0"
   style="fill:#ffffff" />

		<path
   id="path14"
   d="m 91,275 v 95.193 C 91,439.675 149.203,496 221,496 h 70 c 71.797,0 130,-56.325 130,-125.807 V 275 Z"
   inkscape:connector-curvature="0"
   style="fill:#ffffff" />

		<path
   id="path16"
   d="m 238,264.5 v -36.535 c -15.071,-6.217 -25.557,-19.987 -25.557,-35.988 v -67.953 c 0,-16.001 10.485,-29.771 25.557,-35.988 V 16 H 221 C 149.203,16 91,72.325 91,141.806 V 264.5 Z"
   inkscape:connector-curvature="0"
   style="fill:#ffffff" />

	</g>

</g>
  </g>
</svg>
