<?xml version="1.0" encoding="UTF-8" standalone="no"?>
<!-- Created with Inkscape (http://www.inkscape.org/) -->

<svg
   xmlns:dc="http://purl.org/dc/elements/1.1/"
   xmlns:cc="http://creativecommons.org/ns#"
   xmlns:rdf="http://www.w3.org/1999/02/22-rdf-syntax-ns#"
   xmlns:svg="http://www.w3.org/2000/svg"
   xmlns="http://www.w3.org/2000/svg"
   xmlns:sodipodi="http://sodipodi.sourceforge.net/DTD/sodipodi-0.dtd"
   xmlns:inkscape="http://www.inkscape.org/namespaces/inkscape"
   version="1.1"
   id="svg2"
   width="666.66669"
   height="212"
   viewBox="0 0 666.66669 212"
   sodipodi:docname="logo.svg"
   inkscape:version="0.92.3 (2405546, 2018-03-11)">
  <metadata
     id="metadata8">
    <rdf:RDF>
      <cc:Work
         rdf:about="">
        <dc:format>image/svg+xml</dc:format>
        <dc:type
           rdf:resource="http://purl.org/dc/dcmitype/StillImage" />
        <dc:title></dc:title>
      </cc:Work>
    </rdf:RDF>
  </metadata>
  <defs
     id="defs6" />
  <sodipodi:namedview
     pagecolor="#ffffff"
     bordercolor="#666666"
     borderopacity="1"
     objecttolerance="10"
     gridtolerance="10"
     guidetolerance="10"
     inkscape:pageopacity="0"
     inkscape:pageshadow="2"
     inkscape:window-width="1366"
     inkscape:window-height="715"
     id="namedview4"
     showgrid="false"
     inkscape:zoom="0.5"
     inkscape:cx="192.55208"
     inkscape:cy="201.90795"
     inkscape:window-x="-8"
     inkscape:window-y="-8"
     inkscape:window-maximized="1"
     inkscape:current-layer="svg2" />
  <path
     style="fill:#85c850;stroke-width:1.33333337"
     d="m 195.97043,109.50305 c 0,-93.333341 0.239,-106.0000014 2,-106.0000014 1.761,0 2,12.6666604 2,106.0000014 0,93.33332 -0.239,105.99999 -2,105.99999 -1.761,0 -2,-12.66667 -2,-105.99999 z M 74.6371,193.33257 C 67.197372,191.92509 53.622323,187.1014 48.137619,183.91639 27.744072,172.07369 18.990114,154.5294 20.326298,128.17816 c 0.780382,-15.39011 3.619048,-25.45324 12.978337,-46.008451 8.306181,-18.24233 9.316135,-22.24964 9.325028,-37 0.0055,-9.12244 0.451365,-12.33333 1.712609,-12.33333 2.818674,0 26.352603,15.76731 35.538114,23.80989 10.443589,9.14413 22.905684,24.58386 28.005254,34.69669 8.86251,17.575041 13.00945,41.184721 11.65924,66.379251 -0.44549,8.31279 -0.51204,15.11416 -0.14789,15.11416 2.0718,0 13.89052,-7.06998 17.64108,-10.55293 9.8641,-9.16029 14.18208,-27.53143 10.5253,-44.78039 -1.08828,-5.13333 -5.60255,-17.43334 -10.03171,-27.333341 -4.42916,-9.9 -8.45742,-19.65 -8.95167,-21.66666 -0.49425,-2.01667 -1.1408,-3.66667 -1.43675,-3.66667 -0.29596,0 -4.80945,2.84025 -10.02998,6.31167 l -9.49188,6.31167 -5.1552,-5.97833 c -2.835356,-3.28809 -5.137966,-6.57834 -5.116906,-7.31168 0.0429,-1.4934 1.05968,-2.2748 19.935166,-15.31998 14.71216,-10.16784 24.25571,-16.01434 26.13647,-16.01155 0.66891,9.9e-4 1.27576,5.25099 1.34856,11.66667 0.15632,13.77514 1.66388,19.77644 8.79068,34.99396 9.90287,21.145151 13.50404,33.762441 14.13043,49.508141 0.42467,10.67534 0.008,16.10173 -1.68663,22 -5.38518,18.73624 -19.01466,31.86848 -40.70019,39.21532 -7.02424,2.37974 -12.33052,3.01244 -27.999996,3.33856 -10.63333,0.2213 -20.83333,0.11866 -22.666664,-0.22826 z m 34.6607,-17.36168 4.32738,-0.86546 -0.67192,-23.46787 c -0.74303,-25.95178 -2.00875,-31.95189 -9.94297,-47.13424 C 97.318204,93.611359 84.786001,80.600759 71.074232,71.348159 c -5.493024,-3.70666 -10.13207,-6.53817 -10.30899,-6.29224 -0.176921,0.24592 -1.412669,3.44713 -2.746106,7.11379 -1.333439,3.66667 -5.392907,13.21611 -9.021041,21.22098 -11.644536,25.691711 -13.016142,42.452671 -4.848183,59.244621 2.977298,6.12081 5.765962,9.62729 10.068211,12.6598 6.49431,4.57761 15.773446,8.69573 23.085644,10.24552 6.018831,1.27566 26.396803,1.54972 31.994033,0.43026 z m 262.18899,-15.67264 c -20.86195,-7.76773 -28.02339,-42.63197 -12.60036,-61.342781 11.21188,-13.60195 33.75438,-15.38574 46.72094,-3.69703 8.05238,7.258811 11.6691,16.007851 11.67594,28.244611 0.003,5.5 -0.61508,12.23484 -1.37368,14.96631 -1.95091,7.02463 -9.06738,15.81596 -15.83086,19.55668 -7.21817,3.99221 -21.02557,5.08948 -28.59198,2.27221 z m 22.10449,-15.01554 c 4.37616,-3.89688 6.37916,-10.31686 6.37916,-20.44633 0,-14.58984 -4.30196,-22.01784 -13.62824,-23.53129 -6.00869,-0.97508 -12.28051,2.25439 -15.31743,7.8872 -2.94924,5.47017 -3.2465,23.60735 -0.49392,30.13511 3.78834,8.98405 16.09123,12.16124 23.06043,5.95531 z m 159.24378,15.5974 c -13.62467,-4.36779 -22.02428,-17.57143 -22.13943,-34.80173 -0.15689,-23.48003 13.13964,-38.575301 33.94148,-38.533031 18.01172,0.0366 30.14183,12.16678 32.23991,32.240101 l 0.80664,7.7176 h -25.03001 -25.03 l 0.6877,6.10135 c 1.70412,15.11897 19.35427,20.38925 29.86256,8.91688 4.08652,-4.46144 4.49255,-4.59777 11.0197,-3.70005 3.72726,0.51262 6.77684,1.35828 6.77684,1.87922 0,0.52095 -1.75344,3.71207 -3.89654,7.09138 -5.67573,8.94969 -13.89216,13.35268 -25.91108,13.88513 -5.23914,0.23211 -11.23664,-0.12653 -13.32777,-0.79685 z m 27.13539,-46.51322 c 0,-3.46907 -5.44735,-11.1577 -9.37336,-13.22998 -8.11078,-4.281141 -20.21778,1.94669 -22.09594,11.36614 l -0.86404,4.33333 h 16.16667 c 14.84749,0 16.16667,-0.2015 16.16667,-2.46949 z M 235.97044,124.83638 V 88.836379 h 8.66666 8.66667 v 36.000001 35.99999 h -8.66667 -8.66666 z m 38.66666,6.66667 v -29.33334 h -5.33333 -5.33333 v -6.666661 -6.66667 h 5.14761 5.14761 l 0.78108,-6.59498 c 1.67396,-14.13401 6.82008,-18.83271 21.66972,-19.78571 l 9.92064,-0.63666 v 6.84201 6.84201 h -5.33333 c -6.51513,0 -10.66667,3.63259 -10.66667,9.33333 0,4 0,4 8,4 h 8 v 6.66667 6.666661 h -8 -8 v 29.33334 29.33332 h -8 -8 z m 44,-19.33333 V 63.503049 h 8.66667 8.66667 v 48.666671 48.66665 h -8.66667 -8.66667 z m 116.81326,14.36671 c -5.78605,-18.90169 -10.81142,-35.145851 -11.16749,-36.098121 -0.49968,-1.33632 1.41841,-1.64057 8.40577,-1.33334 l 9.05318,0.39808 6.73086,22.939011 c 3.70196,12.61646 6.92668,22.74318 7.16602,22.50385 0.23933,-0.23934 2.54088,-8.4619 5.11452,-18.27235 2.57365,-9.81045 5.2735,-20.087181 5.99968,-22.837181 l 1.32033,-5 7.61527,1.2e-4 7.61528,1.1e-4 5.93154,23.360841 c 3.26235,12.84846 6.34074,22.59841 6.84087,21.66655 0.50013,-0.93186 2.51753,-7.39428 4.48311,-14.36095 1.96558,-6.96667 4.7626,-16.71667 6.21558,-21.666671 l 2.64182,-9 h 6.61021 c 3.93714,0 6.6102,0.59586 6.6102,1.47351 0,0.81043 -4.5,16.706261 -10,35.324061 -5.5,18.61778 -10,34.1547 -10,34.52648 0,0.37177 -3.47656,0.67594 -7.72569,0.67594 h -7.72571 l -5.82216,-23 c -3.20219,-12.64999 -6.13219,-23.56512 -6.51111,-24.25583 -0.37892,-0.69071 -3.48258,9.50929 -6.89704,22.66666 l -6.20809,23.92251 -7.88844,0.3667 -7.88843,0.36672 z m 175.18675,-1.70005 V 88.836379 h 7.33334 7.33333 l 0.0784,7.66667 c 0.0665,6.510811 0.31786,7.276011 1.66667,5.075481 4.3338,-7.070451 11.09899,-12.861411 15.92159,-13.628791 l 5,-0.79561 v 8.72393 8.723931 l -5.16967,0.87341 c -5.94915,1.0051 -11.06728,5.83279 -13.31559,12.55995 -0.84984,2.54288 -1.51473,12.93116 -1.51473,23.66665 v 19.13437 h -8.66667 -8.66667 z M 235.97044,71.503049 v -8 h 8.66666 8.66667 v 8 8 h -8.66667 -8.66666 z M 78.303767,47.329009 c -2.75,-2.24654 -5,-4.58003 -5,-5.18554 0,-1.09402 16.3689,-13.0207 19.541056,-14.23797 1.756201,-0.67391 21.792277,12.65811 21.792277,14.5006 0,0.59412 -2.46186,2.86358 -5.4708,5.04324 l -5.47079,3.96303 -4.751936,-3.22903 c -2.61357,-1.77596 -5.40171,-2.85718 -6.195873,-2.40271 -0.794164,0.45448 -3.036556,1.92794 -4.983094,3.27437 -1.946538,1.34643 -3.746538,2.42793 -4,2.40334 -0.253463,-0.0246 -2.71084,-1.88279 -5.46084,-4.12933 z"
     id="path12"
     inkscape:connector-curvature="0" />
</svg>
