<?xml version="1.0" encoding="UTF-8"?>
<svg width="223px" height="223px" viewBox="0 0 223 223" version="1.1" xmlns="http://www.w3.org/2000/svg" xmlns:xlink="http://www.w3.org/1999/xlink">
    <!-- Generator: sketchtool 50.2 (55047) - http://www.bohemiancoding.com/sketch -->
    <title>7ACE338A-5141-4F36-B90B-492BB2FC3A84</title>
    <desc>Created with sketchtool.</desc>
    <defs>
        <linearGradient x1="74.4954427%" y1="0%" x2="50%" y2="100%" id="linearGradient-1">
            <stop stop-color="#F21E70" offset="0%"></stop>
            <stop stop-color="#BF0606" offset="100%"></stop>
        </linearGradient>
        <path d="M83.2534032,96.4838078 C83.2173162,96.1472755 82.8140833,95.9990383 82.5720091,96.233502 L81.8002854,96.9810247 C80.9557153,97.7989318 80.018126,98.5127334 79.0067936,99.10704 C78.8382382,99.2061665 78.7638228,99.412567 78.829945,99.5976937 C79.2262294,100.709359 79.4902697,101.864704 79.6164621,103.039512 L79.7316715,104.113156 C79.7677584,104.449915 80.1709913,104.597926 80.4130656,104.363462 L81.1847892,103.61594 C82.0293593,102.798032 82.9669487,102.084231 83.978281,101.489924 C84.1468364,101.390798 84.2212518,101.184397 84.1551297,100.999271 C83.7588452,99.8876049 83.4950291,98.7322602 83.3686126,97.5574523 L83.2534032,96.4838078 Z" id="path-2"></path>
        <filter x="-297.8%" y="-167.5%" width="695.6%" height="482.9%" filterUnits="objectBoundingBox" id="filter-3">
            <feOffset dx="0" dy="2" in="SourceAlpha" result="shadowOffsetOuter1"></feOffset>
            <feGaussianBlur stdDeviation="5" in="shadowOffsetOuter1" result="shadowBlurOuter1"></feGaussianBlur>
            <feColorMatrix values="0 0 0 0 0.929411765   0 0 0 0 0.0980392157   0 0 0 0 0.37254902  0 0 0 0.5 0" type="matrix" in="shadowBlurOuter1"></feColorMatrix>
        </filter>
        <path d="M16.1465529,73.2478785 C16.5298997,78.8310106 21.2319732,83.3683157 26.8507765,83.5772937 C28.2225685,83.6281325 29.5738367,83.4315714 30.8500868,83.0014329 C30.7788433,84.3119965 30.554261,85.8373951 29.9902103,87.1936433 C29.6592345,87.9892589 29.7491146,88.8910035 30.2308342,89.6060268 C30.7116101,90.3201129 31.5148692,90.7462687 32.3794638,90.7462687 L42.2476375,90.7462687 C43.1122321,90.7462687 43.9154912,90.3201129 44.3962671,89.6060268 C44.8777507,88.8910035 44.9678667,87.9890247 44.636891,87.1936433 C44.0728403,85.8376293 43.848258,84.3117622 43.7770145,83.0014329 C45.0530287,83.4315714 46.4033533,83.6283668 47.7760889,83.5772937 C53.3948922,83.3683157 58.0969657,78.8310106 58.4803125,73.2478785 C58.6947509,70.1218774 57.6334109,67.1467528 55.4920943,64.8700175 C53.6466036,62.9081549 51.1337355,61.6809951 48.4687082,61.41087 C48.4703595,61.28717 48.4698877,61.1632358 48.4672927,61.0395358 C48.3472167,55.0091628 43.355215,50.1492537 37.3124891,50.1492537 C37.2716774,50.1492537 37.2299221,50.149488 37.1891104,50.1499566 C31.1065164,50.2164922 26.1576854,55.2026782 26.1576854,61.2646791 C26.1576854,61.3134094 26.1579213,61.3621397 26.158629,61.41087 C23.4933658,61.6809951 20.9804977,62.9081549 19.1352429,64.8700175 C16.9934545,67.1465185 15.9321145,70.1216431 16.1465529,73.2478785 Z M21.72077,67.2688128 C23.1767803,65.7209233 25.1496601,64.8683776 27.2761146,64.8683776 C27.3954829,64.8683776 27.5139076,64.8716575 27.6323323,64.8777488 C28.2676265,64.9098452 28.8675348,64.6601025 29.2893343,64.1929477 C29.7099543,63.7271986 29.8939608,63.1061217 29.7944085,62.4887933 C29.7292986,62.0870027 29.6962717,61.6751381 29.6962717,61.2646791 C29.6962717,57.1188562 33.0751499,53.7093761 37.2282707,53.6639257 C37.2563435,53.6636914 37.2841804,53.6634571 37.3124891,53.6634571 C41.4384807,53.6634571 44.8475548,56.9864879 44.9298859,61.1093513 C44.9390862,61.5692434 44.9070031,62.0300726 44.8352877,62.4780164 C44.734556,63.1014361 44.919742,63.7274329 45.3434287,64.195759 C45.7642846,64.6612739 46.3667879,64.9103137 46.9945331,64.8777488 C47.1129578,64.8718918 47.2316184,64.8686119 47.3514585,64.8686119 C49.477913,64.8686119 51.4507928,65.7211576 52.9065672,67.2690471 C54.3717779,68.826542 55.097424,70.8652486 54.9504547,73.0089126 C54.6885993,76.8234633 51.4791015,79.9229907 47.6437457,80.0656674 C46.1346566,80.1202547 44.6597738,79.7386122 43.3809287,78.9570533 C42.7699328,78.5833764 41.9945106,78.5559656 41.3580369,78.8853636 C40.7180246,79.2164015 40.293866,79.8669977 40.251403,80.5841295 C40.1648256,82.0537694 40.1589279,84.6882505 40.9079287,87.231831 L33.7201162,87.231831 C34.469117,84.687782 34.4632194,82.0535351 34.376406,80.5850666 C34.3346507,79.8684034 33.910964,79.2175729 33.2707158,78.8860664 C32.6337702,78.5561999 31.8578762,78.5833764 31.2464085,78.9572876 C29.9677993,79.7386122 28.4926806,80.1207232 26.9838274,80.0656674 C23.1482357,79.9229907 19.9392097,76.823229 19.6771184,73.0089126 C19.5299132,70.8645457 20.2555593,68.8260735 21.72077,67.2688128 Z" id="path-4"></path>
        <filter x="-37.7%" y="-34.5%" width="175.5%" height="178.8%" filterUnits="objectBoundingBox" id="filter-5">
            <feOffset dx="0" dy="2" in="SourceAlpha" result="shadowOffsetOuter1"></feOffset>
            <feGaussianBlur stdDeviation="5" in="shadowOffsetOuter1" result="shadowBlurOuter1"></feGaussianBlur>
            <feColorMatrix values="0 0 0 0 0.929411765   0 0 0 0 0.0980392157   0 0 0 0 0.37254902  0 0 0 0.5 0" type="matrix" in="shadowBlurOuter1"></feColorMatrix>
        </filter>
        <path d="M114.459311,20.2262792 L60.5100739,0.514628889 C58.3982871,-0.256699614 56.113526,-0.158262066 54.0767417,0.791660275 C52.0322227,1.74486387 50.4820165,3.44033345 49.7113667,5.56564699 L43.9652441,21.4138579 L8.43613108,21.4138579 C3.78434064,21.4138579 0.000234382549,25.1980785 0.000234382549,29.849487 L0.000234382549,97.2691295 C0.000234382549,98.2399112 0.787056599,99.0269428 1.7581035,99.0269428 C2.7291504,99.0269428 3.51597262,98.2399112 3.51597262,97.2691295 L3.51597262,29.8492527 C3.51597262,27.1361263 5.72315308,24.9292502 8.43636547,24.9292502 L65.82212,24.9292502 C68.5353324,24.9292502 70.7425128,27.1363607 70.7425128,29.8492527 L70.7425128,111.564371 C70.7425128,114.277497 68.5353324,116.484608 65.82212,116.484608 L8.43613108,116.484608 C5.7229187,116.484608 3.51573823,114.277497 3.51573823,111.564371 L3.51573823,105.304446 C3.51573823,104.333664 2.72891602,103.546633 1.75786912,103.546633 C0.786822217,103.546633 0,104.333664 0,105.304446 L0,111.564371 C0.000234382549,116.215779 3.78434064,120 8.43613108,120 L65.82212,120 C70.4739104,120 74.2580167,116.215779 74.2580167,111.564371 L74.2580167,110.452964 L80.861745,112.865856 C81.8025566,113.20945 82.7773536,113.380544 83.7495724,113.380544 C84.9596895,113.380544 86.1658221,113.115465 87.2953116,112.588824 C89.3398306,111.635621 90.8900367,109.940151 91.6606866,107.814838 L112.750897,49.6462155 C113.081845,48.7335588 112.610033,47.7255114 111.697582,47.3945738 C110.784193,47.0636361 109.776817,47.5354332 109.445869,48.4480899 L88.3556582,106.616478 C87.9056437,107.85726 87.0016303,108.846791 85.809795,109.402495 C84.6247568,109.955151 83.2960422,110.012339 82.0685808,109.563745 L74.2582511,106.709993 L74.2582511,102.580304 C74.6098249,102.381788 74.8976467,102.066085 75.0469483,101.6571 C75.3464892,100.836787 74.9953842,99.9391308 74.2582511,99.5242868 L74.2582511,68.6463029 C76.7352058,66.6250519 79.3675563,64.7955198 82.0976442,63.2062221 C83.5444877,62.3641124 84.1831801,60.6093459 83.6162087,59.033642 C81.98725,54.5066866 80.8980743,49.7863718 80.3791513,45.0039476 L79.8904637,40.5013673 C79.7470216,39.1771479 78.8802749,38.0713661 77.6284377,37.6157408 C76.4677754,37.1931625 75.2021096,37.4125376 74.2577823,38.181288 L74.2577823,29.8490183 C74.2577823,25.1973754 70.4732073,21.4133891 65.8218856,21.4133891 L54.8891116,21.4133891 L55.582884,19.5001851 C55.9138321,18.5875284 55.44202,17.579481 54.5295688,17.2485433 C53.6159456,16.9176057 52.6085694,17.3894028 52.2776212,18.3020595 L51.149538,21.4133891 L47.7045833,21.4133891 L53.016395,6.7635382 C53.4664095,5.52275635 54.370423,4.53322461 55.5622583,3.97752121 C56.7472965,3.42486469 58.0760111,3.36767716 59.3034725,3.81627113 L113.252945,23.5281558 C115.798339,24.4581563 117.114866,27.2959702 116.187414,29.8537058 L112.293148,40.5946485 C111.9622,41.5073052 112.434012,42.5153526 113.346463,42.8462903 C113.544516,42.9180091 113.746554,42.9519935 113.945545,42.9519935 C114.664396,42.9519935 115.339184,42.5078526 115.598411,41.7927741 L119.492677,31.0518314 C121.078743,26.6762823 118.821171,21.82003 114.459311,20.2262792 Z M74.2580167,43.0356654 L76.4058984,40.9755081 L76.8842732,45.3834009 C77.4315564,50.4294971 78.5793277,55.4104371 80.2952424,60.187705 C78.22166,61.3968463 76.2022199,62.7377063 74.2582511,64.1880195 L74.2582511,43.0356654 L74.2580167,43.0356654 Z" id="path-6"></path>
        <filter x="-13.3%" y="-11.7%" width="126.7%" height="126.7%" filterUnits="objectBoundingBox" id="filter-7">
            <feOffset dx="0" dy="2" in="SourceAlpha" result="shadowOffsetOuter1"></feOffset>
            <feGaussianBlur stdDeviation="5" in="shadowOffsetOuter1" result="shadowBlurOuter1"></feGaussianBlur>
            <feColorMatrix values="0 0 0 0 0.929411765   0 0 0 0 0.0980392157   0 0 0 0 0.37254902  0 0 0 0.5 0" type="matrix" in="shadowBlurOuter1"></feColorMatrix>
        </filter>
        <path d="M61.1636654,8.72273797 C61.1275799,8.38597289 60.7243638,8.2379592 60.4822997,8.47220104 L59.7106082,9.21973806 C58.8660734,10.0376608 57.9285232,10.751476 56.917233,11.345794 C56.7486847,11.4449224 56.6742723,11.6513268 56.7403917,11.8364571 C57.1366597,12.948144 57.4006889,14.1035108 57.526876,15.2783411 L57.6423047,16.3520061 C57.6783902,16.6885449 58.0816063,16.8367849 58.3236704,16.6023167 L59.0953619,15.8547797 C59.9398968,15.036857 60.877447,14.3232681 61.8887371,13.7287238 C62.0572855,13.6295954 62.1316978,13.423191 62.0655784,13.2380607 C61.6690864,12.1266001 61.4050571,10.9712334 61.27887,9.796403 L61.1636654,8.72273797 Z" id="path-8"></path>
        <filter x="-297.8%" y="-167.5%" width="695.6%" height="482.9%" filterUnits="objectBoundingBox" id="filter-9">
            <feOffset dx="0" dy="2" in="SourceAlpha" result="shadowOffsetOuter1"></feOffset>
            <feGaussianBlur stdDeviation="5" in="shadowOffsetOuter1" result="shadowBlurOuter1"></feGaussianBlur>
            <feColorMatrix values="0 0 0 0 0.929411765   0 0 0 0 0.0980392157   0 0 0 0 0.37254902  0 0 0 0.5 0" type="matrix" in="shadowBlurOuter1"></feColorMatrix>
        </filter>
        <path d="M85.804664,93.7702099 C85.4743119,94.6797106 85.9452742,95.6842721 86.8560823,96.0140653 C87.0537788,96.0855361 87.2554527,96.119403 87.4543191,96.119403 C88.1716418,96.119403 88.845214,95.6765644 89.1039742,94.9641923 L111.204814,34.1096281 C112.570909,30.3480697 110.626464,26.173569 106.870697,24.8034789 L68.6261183,10.8533641 C67.7153103,10.5207681 66.7081105,10.9888316 66.3756527,11.8976316 C66.043195,12.806198 66.5113498,13.8121609 67.4216899,14.1440562 L105.6658,28.0944046 C107.608842,28.8030397 108.613468,30.9660817 107.90527,32.9161128 L85.804664,93.7702099 Z" id="path-10"></path>
        <filter x="-35.3%" y="-16.4%" width="170.5%" height="137.5%" filterUnits="objectBoundingBox" id="filter-11">
            <feOffset dx="0" dy="2" in="SourceAlpha" result="shadowOffsetOuter1"></feOffset>
            <feGaussianBlur stdDeviation="5" in="shadowOffsetOuter1" result="shadowBlurOuter1"></feGaussianBlur>
            <feColorMatrix values="0 0 0 0 0.929411765   0 0 0 0 0.0980392157   0 0 0 0 0.37254902  0 0 0 0.5 0" type="matrix" in="shadowBlurOuter1"></feColorMatrix>
        </filter>
        <path d="M67.4626866,100.331301 L67.4626866,35.3477041 C67.4626866,31.3289435 64.2186626,28.0597015 60.2315614,28.0597015 L19.6596878,28.0597015 C18.6934076,28.0597015 17.9104478,28.8467195 17.9104478,29.8174845 C17.9104478,30.7882494 18.6934076,31.5752675 19.6596878,31.5752675 L60.2315614,31.5752675 C62.2898339,31.5752675 63.9644397,33.2676609 63.9644397,35.3479385 L63.9644397,100.331769 C63.9644397,101.302534 64.7473996,102.089552 65.7136798,102.089552 C66.67996,102.088849 67.4626866,101.301831 67.4626866,100.331301 Z" id="path-12"></path>
        <filter x="-32.3%" y="-18.9%" width="164.6%" height="143.2%" filterUnits="objectBoundingBox" id="filter-13">
            <feOffset dx="0" dy="2" in="SourceAlpha" result="shadowOffsetOuter1"></feOffset>
            <feGaussianBlur stdDeviation="5" in="shadowOffsetOuter1" result="shadowBlurOuter1"></feGaussianBlur>
            <feColorMatrix values="0 0 0 0 0.929411765   0 0 0 0 0.0980392157   0 0 0 0 0.37254902  0 0 0 0.5 0" type="matrix" in="shadowBlurOuter1"></feColorMatrix>
        </filter>
        <path d="M64.7500068,109.71058 C64.7818906,109.712263 64.8137745,109.713224 64.8461204,109.713224 C66.0084947,109.713224 66.9414439,108.687514 66.8608101,107.455317 C66.7910353,106.388742 65.9461133,105.535627 64.9232886,105.495964 C64.5081054,105.479858 64.1194921,105.594761 63.7923361,105.804374 C63.7523657,105.830094 63.7013054,105.800768 63.6985329,105.75173 C63.6694215,105.235149 63.7147058,104.626262 63.9103987,104.13396 C63.9584555,104.013288 63.8734319,103.880597 63.748207,103.880597 L61.6249274,103.880597 C61.4997024,103.880597 61.4146788,104.013288 61.4627356,104.13396 C61.6581975,104.626262 61.7037128,105.235149 61.6746015,105.75173 C61.671829,105.800768 61.6207686,105.829854 61.5807983,105.804374 C61.2536422,105.595001 60.86526,105.479858 60.4498457,105.495964 C59.4270211,105.535867 58.582099,106.388982 58.5123242,107.455317 C58.4316904,108.687514 59.3646396,109.713224 60.5270139,109.713224 C60.5591288,109.713224 60.5912437,109.712263 60.6228965,109.71058 C60.6663325,109.708176 60.6993715,109.74856 60.6924403,109.793271 C60.6734948,109.916347 60.6649462,110.043028 60.6672566,110.172354 C60.6892057,111.321139 61.6089854,112.251417 62.7092093,112.238677 C63.8142851,112.225936 64.7061087,111.286524 64.7061087,110.129325 C64.7061087,110.013942 64.6973291,109.900722 64.680232,109.790387 C64.6733007,109.746878 64.707726,109.708416 64.7500068,109.71058 Z" id="path-14"></path>
        <filter x="-191.4%" y="-167.5%" width="482.9%" height="482.9%" filterUnits="objectBoundingBox" id="filter-15">
            <feOffset dx="0" dy="2" in="SourceAlpha" result="shadowOffsetOuter1"></feOffset>
            <feGaussianBlur stdDeviation="5" in="shadowOffsetOuter1" result="shadowBlurOuter1"></feGaussianBlur>
            <feColorMatrix values="0 0 0 0 0.929411765   0 0 0 0 0.0980392157   0 0 0 0 0.37254902  0 0 0 0.5 0" type="matrix" in="shadowBlurOuter1"></feColorMatrix>
        </filter>
        <path d="M6.56716418,41.1607792 L6.56716418,106.144787 C6.56716418,110.163573 9.81118815,113.432836 13.7985225,113.432836 L54.3701629,113.432836 C55.3364431,113.432836 56.119403,112.645813 56.119403,111.675042 C56.119403,110.704271 55.3364431,109.917248 54.3701629,109.917248 L13.7985225,109.917248 C11.7402501,109.917248 10.065411,108.224843 10.065411,106.144553 L10.065411,41.1607792 C10.065411,40.1900081 9.2824512,39.4029851 8.31617099,39.4029851 C7.35012402,39.4029851 6.56716418,40.1900081 6.56716418,41.1607792 Z" id="path-16"></path>
        <filter x="-32.3%" y="-18.9%" width="164.6%" height="143.2%" filterUnits="objectBoundingBox" id="filter-17">
            <feOffset dx="0" dy="2" in="SourceAlpha" result="shadowOffsetOuter1"></feOffset>
            <feGaussianBlur stdDeviation="5" in="shadowOffsetOuter1" result="shadowBlurOuter1"></feGaussianBlur>
            <feColorMatrix values="0 0 0 0 0.929411765   0 0 0 0 0.0980392157   0 0 0 0 0.37254902  0 0 0 0.5 0" type="matrix" in="shadowBlurOuter1"></feColorMatrix>
        </filter>
        <path d="M9.87681968,31.7818847 C9.84493681,31.7802021 9.81305394,31.7792406 9.780709,31.7792406 C8.61837043,31.7792406 7.68521888,32.8049208 7.76608123,34.0370831 C7.83585389,35.103627 8.68074996,35.9567179 9.70354321,35.9966202 C10.1189447,36.0127253 10.507315,35.8978261 10.834461,35.6882191 C10.8744301,35.6624989 10.9257199,35.6918247 10.9282613,35.7408612 C10.9573718,36.2574271 10.9120888,36.866297 10.7164019,37.358585 C10.6683466,37.4794937 10.7533676,37.6119403 10.8785887,37.6119403 L13.0018031,37.6119403 C13.1270242,37.6119403 13.2120452,37.4792533 13.1639899,37.358585 C12.968534,36.866297 12.92302,36.2574271 12.9521305,35.7408612 C12.9549029,35.6918247 13.0059617,35.6627393 13.0461619,35.6882191 C13.3733078,35.8975857 13.7616782,36.0127253 14.1770796,35.9966202 C15.1998729,35.9567179 16.0447689,35.103627 16.1145416,34.0370831 C16.1951729,32.8049208 15.2622524,31.7792406 14.0999138,31.7792406 C14.0677999,31.7792406 14.035686,31.7802021 14.0040342,31.7818847 C13.9605995,31.7842884 13.9275615,31.7439054 13.9344926,31.6991957 C13.9534375,31.5761237 13.9619858,31.449446 13.9596754,31.3201243 C13.9377271,30.1713721 13.0179755,29.2411208 11.9177855,29.2538607 C10.8129747,29.2666005 9.92094743,30.2059861 9.92094743,31.3631514 C9.92094743,31.4785314 9.92972677,31.591748 9.94682338,31.7020802 C9.9535234,31.7453477 9.91909914,31.7840481 9.87681968,31.7818847 Z" id="path-18"></path>
        <filter x="-191.4%" y="-167.5%" width="482.9%" height="482.9%" filterUnits="objectBoundingBox" id="filter-19">
            <feOffset dx="0" dy="2" in="SourceAlpha" result="shadowOffsetOuter1"></feOffset>
            <feGaussianBlur stdDeviation="5" in="shadowOffsetOuter1" result="shadowBlurOuter1"></feGaussianBlur>
            <feColorMatrix values="0 0 0 0 0.929411765   0 0 0 0 0.0980392157   0 0 0 0 0.37254902  0 0 0 0.5 0" type="matrix" in="shadowBlurOuter1"></feColorMatrix>
        </filter>
    </defs>
    <g id="Page-1" stroke="none" stroke-width="1" fill="none" fill-rule="evenodd">
        <g id="Landing" transform="translate(-512.000000, -1031.000000)">
            <g id="what-1" transform="translate(512.000000, 1031.000000)">
                <g id="Group" opacity="0.400000006" stroke="#161618" stroke-width="5">
                    <path d="M22.3642369,111.5 L111.5,200.635763 L200.635763,111.5 L111.5,22.3642369 L22.3642369,111.5 Z" id="Rectangle-6"></path>
                    <path d="M3.57839221,111.5 L111.5,219.421608 L219.421608,111.5 L111.5,3.57839221 L3.57839221,111.5 Z" id="Rectangle-6"></path>
                </g>
                <g transform="translate(58.000000, 47.000000)" fill-rule="nonzero" id="Shape">
                    <g>
                        <use fill="black" fill-opacity="1" filter="url(#filter-3)" xlink:href="#path-2"></use>
                        <use fill="url(#linearGradient-1)" fill-rule="evenodd" xlink:href="#path-2"></use>
                    </g>
                    <g>
                        <use fill="black" fill-opacity="1" filter="url(#filter-5)" xlink:href="#path-4"></use>
                        <use fill="url(#linearGradient-1)" fill-rule="evenodd" xlink:href="#path-4"></use>
                    </g>
                    <g>
                        <use fill="black" fill-opacity="1" filter="url(#filter-7)" xlink:href="#path-6"></use>
                        <use fill="url(#linearGradient-1)" fill-rule="evenodd" xlink:href="#path-6"></use>
                    </g>
                    <g>
                        <use fill="black" fill-opacity="1" filter="url(#filter-9)" xlink:href="#path-8"></use>
                        <use fill="url(#linearGradient-1)" fill-rule="evenodd" xlink:href="#path-8"></use>
                    </g>
                    <g>
                        <use fill="black" fill-opacity="1" filter="url(#filter-11)" xlink:href="#path-10"></use>
                        <use fill="url(#linearGradient-1)" fill-rule="evenodd" xlink:href="#path-10"></use>
                    </g>
                    <g>
                        <use fill="black" fill-opacity="1" filter="url(#filter-13)" xlink:href="#path-12"></use>
                        <use fill="url(#linearGradient-1)" fill-rule="evenodd" xlink:href="#path-12"></use>
                    </g>
                    <g>
                        <use fill="black" fill-opacity="1" filter="url(#filter-15)" xlink:href="#path-14"></use>
                        <use fill="url(#linearGradient-1)" fill-rule="evenodd" xlink:href="#path-14"></use>
                    </g>
                    <g>
                        <use fill="black" fill-opacity="1" filter="url(#filter-17)" xlink:href="#path-16"></use>
                        <use fill="url(#linearGradient-1)" fill-rule="evenodd" xlink:href="#path-16"></use>
                    </g>
                    <g>
                        <use fill="black" fill-opacity="1" filter="url(#filter-19)" xlink:href="#path-18"></use>
                        <use fill="url(#linearGradient-1)" fill-rule="evenodd" xlink:href="#path-18"></use>
                    </g>
                </g>
            </g>
        </g>
    </g>
</svg>