<?xml version="1.0" encoding="UTF-8"?>
<svg width="100px" height="100px" viewBox="0 0 100 100" version="1.1" xmlns="http://www.w3.org/2000/svg" xmlns:xlink="http://www.w3.org/1999/xlink">
    <!-- Generator: sketchtool 50.2 (55047) - http://www.bohemiancoding.com/sketch -->
    <title>B077AAA1-5E8E-47E1-BCB6-AFB70F5A1028</title>
    <desc>Created with sketchtool.</desc>
    <defs>
        <linearGradient x1="-24.4695848%" y1="71.7110741%" x2="119.672733%" y2="64.3202162%" id="linearGradient-1">
            <stop stop-color="#680ED0" offset="0%"></stop>
            <stop stop-color="#0F68D6" offset="100%"></stop>
        </linearGradient>
        <linearGradient x1="74.4954427%" y1="0%" x2="50%" y2="100%" id="linearGradient-2">
            <stop stop-color="#F21E70" offset="0%"></stop>
            <stop stop-color="#BF0606" offset="100%"></stop>
        </linearGradient>
        <path d="M63.7052051,21.4154237 L62.8374805,21.4154237 C61.9920996,17.1207203 57.6561426,9.5590678 55.7366113,6.35631356 C56.636582,5.73648305 57.2281836,4.69855932 57.2281836,3.52461864 C57.2281836,1.63055085 55.6891309,0.0894915254 53.7975293,0.0894915254 C51.9059277,0.0894915254 50.367002,1.63042373 50.367002,3.52461864 C50.367002,4.69855932 50.9586035,5.73648305 51.8587012,6.35631356 C49.9392969,9.5590678 45.6033398,17.1207203 44.757959,21.4154237 L43.8903613,21.4154237 C43.1753613,21.4154237 42.5955664,21.9958475 42.5955664,22.7119068 C42.5955664,28.8968644 47.6208789,33.9287288 53.7977832,33.9287288 C59.9746875,33.9287288 65,28.8968644 65,22.7119068 C65,21.9958475 64.4202051,21.4154237 63.7052051,21.4154237 Z M53.7976562,2.68258475 C54.2612891,2.68258475 54.6385937,3.06038136 54.6385937,3.52461864 C54.6385937,3.98885593 54.2612891,4.36652542 53.7976562,4.36652542 C53.3340234,4.36652542 52.9568457,3.98885593 52.9568457,3.52461864 C52.9568457,3.06038136 53.3338965,2.68258475 53.7976562,2.68258475 Z M53.795625,8.16139831 C55.986709,11.8646186 59.3703906,18.033178 60.2026953,21.4154237 L47.3966797,21.4154237 C48.1823926,18.2486441 51.2268555,12.4841949 53.795625,8.16139831 Z M53.7976562,31.3357627 C49.4887402,31.3357627 45.9085352,28.1508051 45.2821484,24.0083898 L62.313291,24.0083898 C61.6867773,28.1508051 58.1068262,31.3357627 53.7976562,31.3357627 Z" id="path-3"></path>
        <filter x="-71.4%" y="-41.4%" width="242.8%" height="194.6%" filterUnits="objectBoundingBox" id="filter-4">
            <feOffset dx="0" dy="2" in="SourceAlpha" result="shadowOffsetOuter1"></feOffset>
            <feGaussianBlur stdDeviation="5" in="shadowOffsetOuter1" result="shadowBlurOuter1"></feGaussianBlur>
            <feColorMatrix values="0 0 0 0 0.929411765   0 0 0 0 0.0980392157   0 0 0 0 0.37254902  0 0 0 0.5 0" type="matrix" in="shadowBlurOuter1"></feColorMatrix>
        </filter>
        <path d="M44.0250586,52.4585593 L40.6018945,52.4585593 L40.6018945,49.1659322 C40.6018945,48.4498729 40.0220996,47.8694492 39.3070996,47.8694492 L36.0187598,47.8694492 L36.0187598,11.6529661 C36.8656641,10.8147458 37.4111816,9.67182203 37.4744043,8.40355932 L42.9493848,7.22389831 C43.6485156,7.07326271 44.0933594,6.38364407 43.9429199,5.68360169 C43.7923535,4.98355932 43.1036328,4.53864407 42.4046289,4.68889831 L36.9168262,5.87148305 C36.0935352,4.30639831 34.4533008,3.23618644 32.5672852,3.23618644 C29.9554785,3.23618644 27.8140332,5.28737288 27.6633398,7.86533898 L13.9727148,10.8152542 C13.3481055,9.95987288 12.339209,9.40283898 11.2023437,9.40283898 C9.31074219,9.40283898 7.77168945,10.9437712 7.77168945,12.8379661 C7.77168945,14.0119068 8.36329102,15.0499576 9.26338867,15.669661 C7.34385742,18.8724153 3.00802734,26.4340678 2.16264648,30.7287712 L1.29504883,30.7287712 C0.579667969,30.7287712 0,31.3091949 0,32.0252542 C0,38.2102119 5.0253125,43.2420763 11.2022168,43.2420763 C17.3791211,43.2420763 22.4044336,38.2102119 22.4044336,32.0252542 C22.4044336,31.3091949 21.8247656,30.7287712 21.1096387,30.7287712 L20.242041,30.7287712 C19.3966602,26.4339407 15.0607031,18.8724153 13.1412988,15.669661 C13.9124121,15.1386864 14.4565332,14.3008475 14.5968164,13.3333475 L28.1987012,10.4026271 C28.4380078,10.8671186 28.7481543,11.2891525 29.1159375,11.6532203 L29.1159375,47.8698305 L25.8277246,47.8698305 C25.1125977,47.8698305 24.5329297,48.4502542 24.5329297,49.1663136 L24.5329297,52.4589407 L21.1097656,52.4589407 C20.3946387,52.4589407 19.8149707,53.0393644 19.8149707,53.7554237 L19.8149707,58.6140254 C19.8149707,59.3300847 20.3946387,59.9105085 21.1097656,59.9105085 L44.0250586,59.9105085 C44.7400586,59.9105085 45.3198535,59.3300847 45.3198535,58.6140254 L45.3198535,53.7550424 C45.3198535,53.0389831 44.7400586,52.4585593 44.0250586,52.4585593 Z M11.2022168,11.995678 C11.6658496,11.995678 12.0431543,12.3734746 12.0431543,12.8377119 C12.0431543,13.3019492 11.6658496,13.6796186 11.2022168,13.6796186 C10.738584,13.6796186 10.3612793,13.3019492 10.3612793,12.8377119 C10.3612793,12.3734746 10.738584,11.995678 11.2022168,11.995678 Z M11.2022168,40.6488559 C6.89317383,40.6488559 3.3130957,37.4638983 2.68670898,33.3214831 L19.7177246,33.3214831 C19.0913379,37.4638983 15.5112598,40.6488559 11.2022168,40.6488559 Z M17.6072559,30.7285169 L4.80124023,30.7285169 C5.58708008,27.5617373 8.63154297,21.7972881 11.2003125,17.4744915 C13.3912695,21.1775847 16.7749512,27.3461441 17.6072559,30.7285169 Z M32.5674121,5.82889831 C33.84875,5.82889831 34.8910352,6.87254237 34.8910352,8.15555085 C34.8910352,9.43855932 33.848623,10.4822034 32.5674121,10.4822034 C31.2862012,10.4822034 30.2437891,9.43855932 30.2437891,8.15555085 C30.2437891,6.87254237 31.2860742,5.82889831 32.5674121,5.82889831 Z M33.4292969,12.9980085 L33.4292969,47.8695763 L31.7055273,47.8695763 L31.7055273,12.9980085 C31.9855859,13.0479661 32.2732617,13.0754237 32.5675391,13.0754237 C32.8618164,13.0754237 33.1492383,13.047839 33.4292969,12.9980085 Z M27.1223926,50.4624153 L38.0123047,50.4624153 L38.0123047,52.4585593 L27.1223926,52.4585593 L27.1223926,50.4624153 Z M42.7302637,57.3174153 L22.4045605,57.3174153 L22.4045605,55.0515254 L42.7302637,55.0515254 L42.7302637,57.3174153 Z" id="path-5"></path>
        <filter x="-35.3%" y="-24.7%" width="170.6%" height="156.5%" filterUnits="objectBoundingBox" id="filter-6">
            <feOffset dx="0" dy="2" in="SourceAlpha" result="shadowOffsetOuter1"></feOffset>
            <feGaussianBlur stdDeviation="5" in="shadowOffsetOuter1" result="shadowBlurOuter1"></feGaussianBlur>
            <feColorMatrix values="0 0 0 0 0.929411765   0 0 0 0 0.0980392157   0 0 0 0 0.37254902  0 0 0 0.5 0" type="matrix" in="shadowBlurOuter1"></feColorMatrix>
        </filter>
        <path d="M48.9302734,4.68915254 C48.779834,3.98911017 48.0909863,3.54381356 47.3918555,3.69444915 L46.4483398,3.89771186 C45.7493359,4.04834746 45.3044922,4.7379661 45.4549316,5.43800847 C45.5858203,6.04614407 46.1225781,6.46194915 46.7196387,6.46194915 C46.8099023,6.46194915 46.9015625,6.45254237 46.9933496,6.43271186 L47.9368652,6.22944915 C48.6357422,6.07881356 49.0807129,5.38919492 48.9302734,4.68915254 Z" id="path-7"></path>
        <filter x="-452.8%" y="-500.6%" width="1005.5%" height="1244.2%" filterUnits="objectBoundingBox" id="filter-8">
            <feOffset dx="0" dy="2" in="SourceAlpha" result="shadowOffsetOuter1"></feOffset>
            <feGaussianBlur stdDeviation="5" in="shadowOffsetOuter1" result="shadowBlurOuter1"></feGaussianBlur>
            <feColorMatrix values="0 0 0 0 0.929411765   0 0 0 0 0.0980392157   0 0 0 0 0.37254902  0 0 0 0.5 0" type="matrix" in="shadowBlurOuter1"></feColorMatrix>
        </filter>
    </defs>
    <g id="Page-1" stroke="none" stroke-width="1" fill="none" fill-rule="evenodd">
        <g id="Landing" transform="translate(-472.000000, -2447.000000)">
            <g id="problem-03" transform="translate(472.000000, 2447.000000)">
                <g id="icon-bg-copy" opacity="0.300000012" stroke="url(#linearGradient-1)" stroke-width="2">
                    <rect id="Rectangle-6" transform="translate(50.000000, 50.000000) rotate(-45.000000) translate(-50.000000, -50.000000) " x="21.6349206" y="21.6349206" width="56.7301587" height="56.7301587"></rect>
                    <rect id="Rectangle-6" transform="translate(50.000000, 50.000000) rotate(-45.000000) translate(-50.000000, -50.000000) " x="15.8148148" y="15.8148148" width="68.3703704" height="68.3703704"></rect>
                </g>
                <g id="flaticon1530177631-svg" transform="translate(17.000000, 20.000000)" fill-rule="nonzero">
                    <g id="Shape">
                        <use fill="black" fill-opacity="1" filter="url(#filter-4)" xlink:href="#path-3"></use>
                        <use fill="url(#linearGradient-2)" fill-rule="evenodd" xlink:href="#path-3"></use>
                    </g>
                    <g id="Shape">
                        <use fill="black" fill-opacity="1" filter="url(#filter-6)" xlink:href="#path-5"></use>
                        <use fill="url(#linearGradient-2)" fill-rule="evenodd" xlink:href="#path-5"></use>
                    </g>
                    <g id="Shape">
                        <use fill="black" fill-opacity="1" filter="url(#filter-8)" xlink:href="#path-7"></use>
                        <use fill="url(#linearGradient-2)" fill-rule="evenodd" xlink:href="#path-7"></use>
                    </g>
                </g>
            </g>
        </g>
    </g>
</svg>