<?xml version="1.0" encoding="UTF-8"?>
<svg width="100px" height="100px" viewBox="0 0 100 100" version="1.1" xmlns="http://www.w3.org/2000/svg" xmlns:xlink="http://www.w3.org/1999/xlink">
    <!-- Generator: sketchtool 50.2 (55047) - http://www.bohemiancoding.com/sketch -->
    <title>7775D753-7856-49C0-9FC8-B1AEF32045E8</title>
    <desc>Created with sketchtool.</desc>
    <defs>
        <linearGradient x1="-24.4695848%" y1="71.7110741%" x2="119.672733%" y2="64.3202162%" id="linearGradient-1">
            <stop stop-color="#680ED0" offset="0%"></stop>
            <stop stop-color="#0F68D6" offset="100%"></stop>
        </linearGradient>
        <linearGradient x1="74.4954427%" y1="0%" x2="50%" y2="100%" id="linearGradient-2">
            <stop stop-color="#F21E70" offset="0%"></stop>
            <stop stop-color="#BF0606" offset="100%"></stop>
        </linearGradient>
        <path d="M67.8637638,0.0801801802 L18.2022362,13.9147748 C17.2478268,14.1990991 17.1494882,14.8753153 17.9832835,15.4172973 L28.8869134,22.5063063 C29.7207087,23.0482883 29.647,23.7951351 28.723378,24.1657658 L1.86137008,34.9448649 C0.937385827,35.3154955 0.973425197,35.8117117 1.94069291,36.0472072 L25.6743386,41.8286486 C26.6417874,42.0643243 26.7308898,42.6679279 25.8721024,43.1702703 L0.433377953,57.918018 C-0.425228346,58.4201802 0.100149606,60.0472072 1.06723622,59.8099099 L58.0753622,46.5517117 C59.0424488,46.3144144 59.1858819,45.6282883 58.3939213,45.027027 L44.7578189,34.6754955 C43.9658583,34.0742342 44.0602126,33.2472072 44.9669921,32.8376577 L67.260874,22.7668468 C68.1678346,22.3572973 68.1319764,21.7803604 67.181189,21.4852252 L50.0623071,16.1691892 C49.1115197,15.8738739 48.9997795,15.1654054 49.8138346,14.5944144 L68.4374961,1.43153153 C69.2515512,0.860720721 68.8179921,-0.204144144 67.8637638,0.0801801802 Z M58.1807638,5.4218018 L43.7467244,15.5418018 C42.9326693,16.1127928 43.0444094,16.8214414 43.9951969,17.1165766 L59.5727165,21.9540541 C60.5235039,22.2493694 60.5593622,22.8261261 59.6524016,23.2356757 L39.7079606,32.245045 C38.801,32.6545946 38.7068268,33.4816216 39.4987874,34.0828829 L52.2389764,43.7542342 C53.030937,44.3554955 52.8875039,45.0416216 51.9204173,45.2789189 L11.8162047,55.1234234 C10.8491181,55.3607207 10.760378,55.1441441 11.6189843,54.6418018 L33.0147795,42.1275676 C33.8733858,41.6252252 33.7842835,41.0214414 32.8168346,40.7859459 L10.774685,35.4165766 C9.80723622,35.1809009 9.77155906,34.6846847 10.6953622,34.3142342 L34.5657402,24.7354955 C35.4895433,24.3648649 35.5630709,23.618018 34.7292756,23.0758559 L24.3646063,16.3372973 C23.5306299,15.7953153 23.6291496,15.1190991 24.5835591,14.8347748 L57.9261339,4.90072072 C58.8803622,4.6163964 58.9948189,4.85081081 58.1807638,5.4218018 Z" id="path-3"></path>
        <filter x="-23.2%" y="-23.4%" width="146.5%" height="153.5%" filterUnits="objectBoundingBox" id="filter-4">
            <feOffset dx="0" dy="2" in="SourceAlpha" result="shadowOffsetOuter1"></feOffset>
            <feGaussianBlur stdDeviation="5" in="shadowOffsetOuter1" result="shadowBlurOuter1"></feGaussianBlur>
            <feColorMatrix values="0 0 0 0 0.929411765   0 0 0 0 0.0980392157   0 0 0 0 0.37254902  0 0 0 0.5 0" type="matrix" in="shadowBlurOuter1"></feColorMatrix>
        </filter>
        <path d="M60.5599055,31.4100901 C57.4204961,31.4100901 54.936315,33.0495495 54.2316457,35.5861261 C54.1487008,35.8836036 53.9288425,36.6740541 54.4493307,37.354955 C54.8158819,37.8342342 55.4091732,38.0772973 56.2127244,38.0772973 L64.5434331,38.0772973 C65.6896299,38.0772973 66.2731417,37.6005405 66.5607323,37.2005405 C66.9385118,36.6754955 67.027252,35.9632432 66.7981575,35.2953153 C65.9766772,32.8987387 63.5863071,31.4100901 60.5599055,31.4100901 Z M64.396378,35.9151351 L56.8617953,35.9151351 C56.4090394,35.9151351 56.5182441,35.6473874 56.5876063,35.5209009 C57.2498976,34.318018 58.731315,33.5722523 60.5599055,33.5722523 C62.4348583,33.5722523 63.9271417,34.3351351 64.5705984,35.590991 C64.6227559,35.6931532 64.7133071,35.9151351 64.396378,35.9151351 Z" id="path-5"></path>
        <filter x="-124.9%" y="-210.0%" width="349.8%" height="580.0%" filterUnits="objectBoundingBox" id="filter-6">
            <feOffset dx="0" dy="2" in="SourceAlpha" result="shadowOffsetOuter1"></feOffset>
            <feGaussianBlur stdDeviation="5" in="shadowOffsetOuter1" result="shadowBlurOuter1"></feGaussianBlur>
            <feColorMatrix values="0 0 0 0 0.929411765   0 0 0 0 0.0980392157   0 0 0 0 0.37254902  0 0 0 0.5 0" type="matrix" in="shadowBlurOuter1"></feColorMatrix>
        </filter>
        <path d="M8.13004724,25.7778378 L16.4607559,25.7778378 C17.6069528,25.7778378 18.1904646,25.3010811 18.4782362,24.9012613 C18.8558346,24.376036 18.9445748,23.663964 18.7156614,22.996036 C17.8941811,20.5994595 15.5039921,19.1108108 12.4774094,19.1108108 C9.3378189,19.1108108 6.8538189,20.7500901 6.14914961,23.2866667 C6.06620472,23.5843243 5.84634646,24.374955 6.36701575,25.0556757 C6.73320472,25.5347748 7.32631496,25.7778378 8.13004724,25.7778378 Z M8.56505512,23.1172973 C9.25414961,21.976036 10.7022441,21.2731532 12.4772283,21.2731532 C14.2509449,21.2731532 15.682378,21.9562162 16.3765433,23.0933333 C16.4756063,23.2556757 16.6722835,23.6158559 16.2345591,23.6158559 L8.77531496,23.6158559 C8.32255906,23.6156757 8.46979528,23.2751351 8.56505512,23.1172973 Z" id="path-7"></path>
        <filter x="-124.9%" y="-210.0%" width="349.8%" height="580.0%" filterUnits="objectBoundingBox" id="filter-8">
            <feOffset dx="0" dy="2" in="SourceAlpha" result="shadowOffsetOuter1"></feOffset>
            <feGaussianBlur stdDeviation="5" in="shadowOffsetOuter1" result="shadowBlurOuter1"></feGaussianBlur>
            <feColorMatrix values="0 0 0 0 0.929411765   0 0 0 0 0.0980392157   0 0 0 0 0.37254902  0 0 0 0.5 0" type="matrix" in="shadowBlurOuter1"></feColorMatrix>
        </filter>
    </defs>
    <g id="Page-1" stroke="none" stroke-width="1" fill="none" fill-rule="evenodd">
        <g id="Landing" transform="translate(-473.000000, -2135.000000)">
            <g id="problem-01" transform="translate(473.000000, 2135.000000)">
                <g id="icon-bg-copy" opacity="0.300000012" stroke="url(#linearGradient-1)" stroke-width="2">
                    <rect id="Rectangle-6" transform="translate(50.000000, 50.000000) rotate(-45.000000) translate(-50.000000, -50.000000) " x="21.6349206" y="21.6349206" width="56.7301587" height="56.7301587"></rect>
                    <rect id="Rectangle-6" transform="translate(50.000000, 50.000000) rotate(-45.000000) translate(-50.000000, -50.000000) " x="15.8148148" y="15.8148148" width="68.3703704" height="68.3703704"></rect>
                </g>
                <g id="flaticon1530177484-svg" transform="translate(16.000000, 22.000000)" fill-rule="nonzero">
                    <g id="Shape">
                        <use fill="black" fill-opacity="1" filter="url(#filter-4)" xlink:href="#path-3"></use>
                        <use fill="url(#linearGradient-2)" fill-rule="evenodd" xlink:href="#path-3"></use>
                    </g>
                    <g id="Shape">
                        <use fill="black" fill-opacity="1" filter="url(#filter-6)" xlink:href="#path-5"></use>
                        <use fill="url(#linearGradient-2)" fill-rule="evenodd" xlink:href="#path-5"></use>
                    </g>
                    <g id="Shape">
                        <use fill="black" fill-opacity="1" filter="url(#filter-8)" xlink:href="#path-7"></use>
                        <use fill="url(#linearGradient-2)" fill-rule="evenodd" xlink:href="#path-7"></use>
                    </g>
                </g>
            </g>
        </g>
    </g>
</svg>