<svg xmlns="http://www.w3.org/2000/svg" xmlns:xlink="http://www.w3.org/1999/xlink" width="196.79" height="51.52" viewBox="0 0 196.79 51.52"><defs><path id="d68ga" d="M386.87 109.14V82.91h3.6l11.6 17.02 2.13 3.82h.08a42.41 42.41 0 0 1-.23-3.82V82.9h3.61v26.23h-3.57L392.5 92.13l-2.13-3.83h-.08c.15 1.56.22 2.84.22 3.83v17.01z"/><path id="d68gb" d="M412.3 99.74c0-2.95.88-5.32 2.64-7.13 1.77-1.8 4-2.71 6.7-2.71 2.53 0 4.5.83 5.92 2.5a9.38 9.38 0 0 1 2.14 6.3c0 .32-.05.83-.15 1.52h-13.54c.1 1.96.76 3.49 1.97 4.6a6.36 6.36 0 0 0 4.43 1.64c2.04 0 3.87-.73 5.49-2.19l1.5 2.64a11.28 11.28 0 0 1-7.21 2.67c-2.9 0-5.27-.93-7.12-2.8a9.6 9.6 0 0 1-2.77-7.04m3.82-2.11h9.97a5.25 5.25 0 0 0-1.34-3.65 4.26 4.26 0 0 0-3.18-1.3c-1.4 0-2.6.44-3.59 1.32a5.9 5.9 0 0 0-1.86 3.63"/><path id="d68gc" d="M431.72 109.14l6.37-9.66-6-9.14h4.08l3.46 5.72.6 1.12h.07l.62-1.12 3.46-5.72h4.08l-6 9.14 6.37 9.66h-4.05l-3.9-6.28-.58-1h-.08c-.17.37-.35.7-.55 1l-3.9 6.28z"/><path id="d68gd" d="M452.99 102.27v-8.8h-2.43l6-8.3v5.36h4.49v2.93h-4.5v8.4c0 .72.1 1.34.3 1.87.2.54.44.95.72 1.25a4.1 4.1 0 0 0 2.96 1.11c.32 0 .6-.02.85-.07v3.2c-.59.07-1 .1-1.25.1a8.3 8.3 0 0 1-3.53-.69 5.69 5.69 0 0 1-1.79-1.14 5.77 5.77 0 0 1-1.29-2.08 8.53 8.53 0 0 1-.53-3.14"/><path id="d68ge" d="M464.1 95.84a13.04 13.04 0 0 1 13.36-13.37 13.04 13.04 0 0 1 13.32 13.37 13.6 13.6 0 0 1-3.8 9.79 12.64 12.64 0 0 1-9.52 3.95c-3.83 0-7.01-1.31-9.55-3.95a13.57 13.57 0 0 1-3.8-9.79m3.75 0c0 2.95.9 5.41 2.72 7.4a8.93 8.93 0 0 0 6.88 2.96c2.75 0 5.03-.99 6.84-2.97a10.53 10.53 0 0 0 2.72-7.39 10 10 0 0 0-2.72-7.15 9.02 9.02 0 0 0-6.84-2.88c-2.77 0-5.07.96-6.88 2.88a10 10 0 0 0-2.72 7.15"/><path id="d68gf" d="M496 109.14V82.91h3.6l11.6 17.02 2.13 3.82h.08a42.41 42.41 0 0 1-.23-3.82V82.9h3.61v26.23h-3.57l-11.59-17.01-2.13-3.83h-.08c.15 1.56.22 2.84.22 3.83v17.01z"/><path id="d68gg" d="M341.52 109.36l-9.6-5.6a2.46 2.46 0 0 1-.9-.9l-10.37 6.05a4.84 4.84 0 0 0 1.76 1.78l17.92 10.44c.75.44 1.58.66 2.41.66v-12.1c-.42 0-.84-.1-1.22-.33"/><path id="d68gh" d="M343.97 82.7l9.6 5.59c.38.22.68.53.9.9l10.37-6.04a4.85 4.85 0 0 0-1.77-1.79l-17.92-10.44a4.79 4.79 0 0 0-2.4-.65v12.1c.41 0 .84.1 1.22.32"/><path id="d68gi" d="M365.48 85.58c0-.87-.22-1.7-.64-2.43l-10.38 6.04c.22.37.33.8.33 1.24v11.2c0 .44-.11.86-.33 1.23l10.38 6.05a4.9 4.9 0 0 0 .64-2.44z"/><path id="d68gj" d="M331.92 88.29l9.6-5.6c.38-.22.8-.33 1.22-.33v-12.1c-.83 0-1.66.23-2.4.66L322.4 81.36a4.85 4.85 0 0 0-1.76 1.79l10.37 6.04c.21-.37.52-.68.9-.9"/><path id="d68gk" d="M330.7 101.62v-11.2c0-.43.1-.86.32-1.23l-10.37-6.04a4.9 4.9 0 0 0-.65 2.43v20.89c0 .87.23 1.7.65 2.44l10.37-6.05c-.21-.37-.33-.8-.33-1.24"/></defs><g><g transform="translate(-320 -70.27)"><use fill="#19293e" xlink:href="#d68ga"/></g><g transform="translate(-320 -70.27)"><use fill="#19293e" xlink:href="#d68gb"/></g><g transform="translate(-320 -70.27)"><use fill="#19293e" xlink:href="#d68gc"/></g><g transform="translate(-320 -70.27)"><use fill="#19293e" xlink:href="#d68gd"/></g><g transform="translate(-320 -70.27)"><use fill="#19293e" xlink:href="#d68ge"/></g><g clip-path="url(#clip-F081C3DD-6D25-3358-A243-A36777D655C8)" transform="translate(-320 -70.27)"><use fill="#19293e" xlink:href="#d68gf"/></g><g clip-path="url(#clip-F3D5F6EF-FC76-8519-61E5-15F02A0FF9CC)" transform="translate(-320 -70.27)"><use fill="#ffcc4c" xlink:href="#d68gg"/></g><g clip-path="url(#clip-9A165919-8D9F-C0FB-C3DE-9000BEC6A4F4)" transform="translate(-320 -70.27)"><use fill="#1c4778" xlink:href="#d68gh"/></g><g transform="translate(-320 -70.27)"><use fill="#c6cacf" xlink:href="#d68gi"/></g><g transform="translate(-320 -70.27)"><use fill="#4cc1ef" xlink:href="#d68gj"/></g><g transform="translate(-320 -70.27)"><use fill="#ef7700" xlink:href="#d68gk"/></g></g></svg>