<?xml version="1.0" encoding="UTF-8"?>
<svg width="189px" height="189px" viewBox="0 0 189 189" version="1.1" xmlns="http://www.w3.org/2000/svg" xmlns:xlink="http://www.w3.org/1999/xlink">
    <!-- Generator: sketchtool 50.2 (55047) - http://www.bohemiancoding.com/sketch -->
    <title>21A7FEAB-91F8-463C-BEE1-AF9742F6EE9D</title>
    <desc>Created with sketchtool.</desc>
    <defs>
        <linearGradient x1="-24.4695848%" y1="71.7110741%" x2="119.672733%" y2="64.3202162%" id="linearGradient-1">
            <stop stop-color="#680ED0" offset="0%"></stop>
            <stop stop-color="#0F68D6" offset="100%"></stop>
        </linearGradient>
        <linearGradient x1="74.4954427%" y1="0%" x2="50%" y2="100%" id="linearGradient-2">
            <stop stop-color="#F21E70" offset="0%"></stop>
            <stop stop-color="#BF0606" offset="100%"></stop>
        </linearGradient>
        <path d="M117.427368,12.7958519 L85.2615205,12.7958519 C81.5726316,7.93978836 76.6236257,4.27498413 70.8872515,2.17020106 C69.6760234,1.72531217 68.3302924,2.34270899 67.8832749,3.54933333 C67.4364912,4.75572487 68.0568421,6.09434921 69.2690058,6.53900529 C79.8853801,10.4338201 87.0180117,20.6199365 87.0180117,31.8860317 C87.0180117,46.7768889 74.845614,58.8913228 59.8835088,58.8913228 C44.9214035,58.8913228 32.7490058,46.7768889 32.7490058,31.8860317 C32.7490058,20.9763598 39.2797661,11.1981164 49.3871345,6.97481481 C50.5784795,6.47684656 51.1384795,5.11238095 50.6385965,3.9269418 C50.1382456,2.74103704 48.7667836,2.18440212 47.5761404,2.68143915 C42.2666667,4.90006349 37.8030409,8.42867725 34.4888889,12.795619 L2.33918129,12.795619 C1.04748538,12.795619 0,13.8381164 0,15.1236614 L0,48.6474709 C0,49.9330159 1.04748538,50.9755132 2.33918129,50.9755132 L15.6727485,50.9755132 C16.9644444,50.9755132 18.0119298,49.9330159 18.0119298,48.6474709 C18.0119298,47.3619259 16.9644444,46.3194286 15.6727485,46.3194286 L4.67836257,46.3194286 L4.67836257,17.4517037 L31.5548538,17.4517037 C29.4502924,21.5488254 28.234152,26.1280847 28.088655,30.9143069 C27.7185965,30.1141587 26.9078363,29.5575238 25.9646784,29.5575238 L23.7003509,29.5575238 L24.8325146,27.6059259 C25.4785965,26.4924233 25.0952047,25.0688254 23.9763743,24.4258201 C22.857076,23.7828148 21.4266667,24.164381 20.7810526,25.2778836 L19.6491228,27.2297143 L18.5169591,25.2781164 C17.8708772,24.1648466 16.4404678,23.7832804 15.3216374,24.4260529 C14.202807,25.0690582 13.8194152,26.4926561 14.4654971,27.6061587 L15.5976608,29.5577566 L13.3333333,29.5577566 C12.0416374,29.5577566 10.994152,30.600254 10.994152,31.8857989 C10.994152,33.1713439 12.0416374,34.2138413 13.3333333,34.2138413 L15.5976608,34.2138413 L14.4654971,36.1654392 C13.8194152,37.2789418 14.202807,38.7025397 15.3216374,39.345545 C15.6900585,39.557164 16.0921637,39.6579683 16.4888889,39.6579683 C17.2973099,39.6579683 18.0837427,39.2403175 18.5169591,38.4934815 L19.6491228,36.5418836 L20.7812865,38.4934815 C21.2147368,39.2403175 22.0007018,39.6579683 22.8093567,39.6579683 C23.2060819,39.6579683 23.6084211,39.557164 23.9766082,39.345545 C25.0954386,38.7025397 25.4788304,37.2789418 24.8327485,36.1654392 L23.7005848,34.2138413 L25.9649123,34.2138413 C26.9066667,34.2138413 27.7162573,33.6586032 28.0870175,32.8605503 C28.6065497,49.8694603 42.6694737,63.5474074 59.8835088,63.5474074 C65.4292398,63.5474074 70.6474854,62.1263704 75.1918129,59.633037 L100.901287,85.2200847 C102.614035,86.9244444 104.865965,87.7758095 107.123743,87.7758095 C109.402339,87.7758095 111.686784,86.908381 113.427602,85.1758519 C115.098713,83.513164 116.025029,81.3003598 116.036491,78.9446138 C116.047953,76.5807196 115.137076,74.3660529 113.472281,72.7091852 L91.6350877,50.9759788 L117.427368,50.9759788 C118.719064,50.9759788 119.76655,49.9334815 119.76655,48.6479365 L119.76655,15.124127 C119.76655,13.8383492 118.719064,12.7958519 117.427368,12.7958519 Z M79.1929825,57.0298201 C81.4299415,55.3242963 83.4334503,53.330328 85.1473684,51.1037884 L90.1525146,56.0848677 L84.1981287,62.0111323 L79.1929825,57.0298201 Z M93.4605848,59.377418 L110.164444,76.0015026 C110.939649,76.7732487 111.363509,77.8103915 111.358363,78.9220317 C111.352982,80.0425185 110.913216,81.0940952 110.12,81.8835344 C108.478363,83.5178201 105.826667,83.5373757 104.209591,81.9275344 L87.5061988,65.3036825 L93.4605848,59.377418 Z M115.088187,46.3196614 L88.1936842,46.3196614 C90.2612865,42.3193862 91.4954386,37.8262646 91.6718129,33.0686772 C92.0790643,33.7533545 92.8266667,34.2138413 93.6839766,34.2138413 L95.9483041,34.2138413 L94.8161404,36.1654392 C94.1700585,37.2789418 94.5534503,38.7025397 95.6722807,39.345545 C96.0407018,39.557164 96.442807,39.6579683 96.8395322,39.6579683 C97.6479532,39.6579683 98.434386,39.2403175 98.8676023,38.4934815 L99.9997661,36.5418836 L101.13193,38.4934815 C101.56538,39.2403175 102.351345,39.6579683 103.16,39.6579683 C103.556725,39.6579683 103.959064,39.557164 104.327251,39.345545 C105.446082,38.7025397 105.829474,37.2789418 105.183392,36.1654392 L104.051228,34.2138413 L106.315556,34.2138413 C107.607251,34.2138413 108.654737,33.1713439 108.654737,31.8857989 C108.654737,30.600254 107.607251,29.5577566 106.315556,29.5577566 L104.051228,29.5577566 L105.183392,27.6061587 C105.829474,26.4926561 105.446082,25.0690582 104.327251,24.4260529 C103.208187,23.7830476 101.777778,24.1646138 101.13193,25.2781164 L99.9997661,27.2297143 L98.8676023,25.2781164 C98.2217544,24.1648466 96.7911111,23.7832804 95.6722807,24.4260529 C94.5534503,25.0690582 94.1700585,26.4926561 94.8161404,27.6061587 L95.9483041,29.5577566 L93.6839766,29.5577566 C92.8278363,29.5577566 92.0814035,30.0170794 91.6736842,30.6998942 C91.5019883,26.0426455 90.3164912,21.5467302 88.2021053,17.4519365 L115.088187,17.4519365 L115.088187,46.3196614 Z" id="path-3"></path>
        <filter x="-13.4%" y="-16.3%" width="126.7%" height="137.3%" filterUnits="objectBoundingBox" id="filter-4">
            <feOffset dx="0" dy="2" in="SourceAlpha" result="shadowOffsetOuter1"></feOffset>
            <feGaussianBlur stdDeviation="5" in="shadowOffsetOuter1" result="shadowBlurOuter1"></feGaussianBlur>
            <feColorMatrix values="0 0 0 0 0.929411765   0 0 0 0 0.0980392157   0 0 0 0 0.37254902  0 0 0 0.5 0" type="matrix" in="shadowBlurOuter1"></feColorMatrix>
        </filter>
        <path d="M27.6187135,47.0013122 C27.1838596,46.5685291 26.5803509,46.3191958 25.9651462,46.3191958 C25.3499415,46.3191958 24.7464327,46.5682963 24.311345,47.0013122 C23.8762573,47.434328 23.6259649,48.034963 23.6259649,48.6472381 C23.6259649,49.2618413 23.8760234,49.8601481 24.311345,50.293164 C24.7464327,50.7259471 25.3499415,50.9752804 25.9651462,50.9752804 C26.5803509,50.9752804 27.1838596,50.7261799 27.6187135,50.293164 C28.0538012,49.8601481 28.3043275,49.2616085 28.3043275,48.6472381 C28.3043275,48.034963 28.0540351,47.434328 27.6187135,47.0013122 Z" id="path-5"></path>
        <filter x="-342.0%" y="-300.7%" width="784.0%" height="787.3%" filterUnits="objectBoundingBox" id="filter-6">
            <feOffset dx="0" dy="2" in="SourceAlpha" result="shadowOffsetOuter1"></feOffset>
            <feGaussianBlur stdDeviation="5" in="shadowOffsetOuter1" result="shadowBlurOuter1"></feGaussianBlur>
            <feColorMatrix values="0 0 0 0 0.929411765   0 0 0 0 0.0980392157   0 0 0 0 0.37254902  0 0 0 0.5 0" type="matrix" in="shadowBlurOuter1"></feColorMatrix>
        </filter>
        <path d="M76.151345,39.2314709 L74.2404678,39.2314709 L74.2404678,22.3145185 C74.2404678,21.3728254 73.6704094,20.5240212 72.7964912,20.1636402 C71.9225731,19.8037249 70.9162573,20.0025397 70.2472515,20.6683598 L65.7066667,25.1873228 C64.7932164,26.0964233 64.7932164,27.5705397 65.7066667,28.479873 C66.6203509,29.3889735 68.1010526,29.3889735 69.0147368,28.479873 L69.5621053,27.9351111 L69.5621053,39.2314709 L67.571462,39.2314709 C66.2797661,39.2314709 65.2322807,40.2739683 65.2322807,41.5595132 C65.2322807,42.8450582 66.2797661,43.8875556 67.571462,43.8875556 L76.151345,43.8875556 C77.4430409,43.8875556 78.4905263,42.8450582 78.4905263,41.5595132 C78.4905263,40.2739683 77.4430409,39.2314709 76.151345,39.2314709 Z" id="path-7"></path>
        <filter x="-118.8%" y="-58.6%" width="337.6%" height="233.9%" filterUnits="objectBoundingBox" id="filter-8">
            <feOffset dx="0" dy="2" in="SourceAlpha" result="shadowOffsetOuter1"></feOffset>
            <feGaussianBlur stdDeviation="5" in="shadowOffsetOuter1" result="shadowBlurOuter1"></feGaussianBlur>
            <feColorMatrix values="0 0 0 0 0.929411765   0 0 0 0 0.0980392157   0 0 0 0 0.37254902  0 0 0 0.5 0" type="matrix" in="shadowBlurOuter1"></feColorMatrix>
        </filter>
        <path d="M49.4935673,20.0265185 C44.4484211,20.0265185 40.3436257,24.1117672 40.3436257,29.1328889 L40.3436257,34.781418 C40.3436257,39.8025397 44.4484211,43.8877884 49.4935673,43.8877884 C54.5387135,43.8877884 58.6435088,39.8025397 58.6435088,34.781418 L58.6435088,29.1328889 C58.6435088,24.1117672 54.5387135,20.0265185 49.4935673,20.0265185 Z M53.9651462,34.781418 C53.9651462,37.2354074 51.9592982,39.2317037 49.4935673,39.2317037 C47.0278363,39.2317037 45.0219883,37.2354074 45.0219883,34.781418 L45.0219883,29.1328889 C45.0219883,26.6788995 47.0278363,24.6826032 49.4935673,24.6826032 C51.9592982,24.6826032 53.9651462,26.6788995 53.9651462,29.1328889 L53.9651462,34.781418 Z" id="path-9"></path>
        <filter x="-87.4%" y="-58.7%" width="274.9%" height="234.1%" filterUnits="objectBoundingBox" id="filter-10">
            <feOffset dx="0" dy="2" in="SourceAlpha" result="shadowOffsetOuter1"></feOffset>
            <feGaussianBlur stdDeviation="5" in="shadowOffsetOuter1" result="shadowBlurOuter1"></feGaussianBlur>
            <feColorMatrix values="0 0 0 0 0.929411765   0 0 0 0 0.0980392157   0 0 0 0 0.37254902  0 0 0 0.5 0" type="matrix" in="shadowBlurOuter1"></feColorMatrix>
        </filter>
        <path d="M59.9918129,0.224888889 L59.8832749,0.224656085 C58.5915789,0.224656085 57.5440936,1.26715344 57.5440936,2.55269841 C57.5440936,3.83824339 58.5915789,4.88074074 59.8835088,4.88074074 L59.9567251,4.88097354 C59.9625731,4.88097354 59.968655,4.88097354 59.9747368,4.88097354 C61.2582456,4.88097354 62.3036257,3.8501164 62.3134503,2.57039153 C62.3230409,1.28484656 61.2837427,0.234666667 59.9918129,0.224888889 Z" id="path-11"></path>
        <filter x="-335.5%" y="-300.7%" width="770.9%" height="787.2%" filterUnits="objectBoundingBox" id="filter-12">
            <feOffset dx="0" dy="2" in="SourceAlpha" result="shadowOffsetOuter1"></feOffset>
            <feGaussianBlur stdDeviation="5" in="shadowOffsetOuter1" result="shadowBlurOuter1"></feGaussianBlur>
            <feColorMatrix values="0 0 0 0 0.929411765   0 0 0 0 0.0980392157   0 0 0 0 0.37254902  0 0 0 0.5 0" type="matrix" in="shadowBlurOuter1"></feColorMatrix>
        </filter>
    </defs>
    <g id="Page-1" stroke="none" stroke-width="1" fill="none" fill-rule="evenodd">
        <g id="Landing" transform="translate(-1012.000000, -3178.000000)">
            <g id="platform-03" transform="translate(1012.000000, 3178.000000)">
                <g id="icon-bg" opacity="0.300000012" stroke="url(#linearGradient-1)" stroke-width="2">
                    <rect id="Rectangle-6" transform="translate(94.500000, 94.500000) rotate(-45.000000) translate(-94.500000, -94.500000) " x="40" y="40" width="109" height="109"></rect>
                    <rect id="Rectangle-6" transform="translate(94.500000, 94.500000) rotate(-45.000000) translate(-94.500000, -94.500000) " x="29" y="29" width="131" height="131"></rect>
                </g>
                <g id="flaticon1530183084-svg" transform="translate(35.000000, 63.000000)" fill-rule="nonzero">
                    <g id="Shape">
                        <use fill="black" fill-opacity="1" filter="url(#filter-4)" xlink:href="#path-3"></use>
                        <use fill="url(#linearGradient-2)" fill-rule="evenodd" xlink:href="#path-3"></use>
                    </g>
                    <g id="Shape">
                        <use fill="black" fill-opacity="1" filter="url(#filter-6)" xlink:href="#path-5"></use>
                        <use fill="url(#linearGradient-2)" fill-rule="evenodd" xlink:href="#path-5"></use>
                    </g>
                    <g id="Shape">
                        <use fill="black" fill-opacity="1" filter="url(#filter-8)" xlink:href="#path-7"></use>
                        <use fill="url(#linearGradient-2)" fill-rule="evenodd" xlink:href="#path-7"></use>
                    </g>
                    <g id="Shape">
                        <use fill="black" fill-opacity="1" filter="url(#filter-10)" xlink:href="#path-9"></use>
                        <use fill="url(#linearGradient-2)" fill-rule="evenodd" xlink:href="#path-9"></use>
                    </g>
                    <g id="Shape">
                        <use fill="black" fill-opacity="1" filter="url(#filter-12)" xlink:href="#path-11"></use>
                        <use fill="url(#linearGradient-2)" fill-rule="evenodd" xlink:href="#path-11"></use>
                    </g>
                </g>
            </g>
        </g>
    </g>
</svg>