<svg xmlns="http://www.w3.org/2000/svg" xmlns:xlink="http://www.w3.org/1999/xlink" viewBox="170 553 216 216"><defs><style>.a,.b{fill:#333;font-family:Raleway-ExtraBold, Raleway;font-weight:800;}.a{font-size:28px;}.b{font-size:92px;}.c{fill:#e4a01a;}.d,.f{fill:none;}.d{stroke:#707070;stroke-width:6px;}.e{stroke:none;}.g{filter:url(#e);}.h{filter:url(#c);}.i{filter:url(#a);}</style><filter id="a" x="206.224" y="581.264" width="64" height="118" filterUnits="userSpaceOnUse"><feOffset dx="-4" dy="7" input="SourceAlpha"/><feGaussianBlur stdDeviation="1" result="b"/><feFlood flood-opacity="0.161"/><feComposite operator="in" in2="b"/><feComposite in="SourceGraphic"/></filter><filter id="c" x="270" y="581" width="69" height="118" filterUnits="userSpaceOnUse"><feOffset dx="-4" dy="7" input="SourceAlpha"/><feGaussianBlur stdDeviation="1" result="d"/><feFlood flood-opacity="0.161"/><feComposite operator="in" in2="d"/><feComposite in="SourceGraphic"/></filter><filter id="e" x="170" y="553" width="216" height="216" filterUnits="userSpaceOnUse"><feOffset dy="6" input="SourceAlpha"/><feGaussianBlur stdDeviation="3" result="f"/><feFlood flood-opacity="0.161"/><feComposite operator="in" in2="f"/><feComposite in="SourceGraphic"/></filter></defs><g transform="translate(-174 -38)"><text class="a" transform="translate(452 737)"><tspan x="-78.694" y="0">PORTFOLIO</tspan></text><g class="i" transform="matrix(1, 0, 0, 1, 174, 38)"><text class="b" transform="translate(213.22 667.26)"><tspan x="0" y="0">S</tspan></text></g><g class="h" transform="matrix(1, 0, 0, 1, 174, 38)"><text class="b" transform="translate(308 667)"><tspan x="-30.498" y="0">Y</tspan></text></g><circle class="c" cx="6.5" cy="6.5" r="6.5" transform="translate(447 691)"/></g><circle class="c" cx="11" cy="11" r="11" transform="translate(289 678)"/><g class="g" transform="matrix(1, 0, 0, 1, 0, 0)"><g class="d" transform="translate(179 556)"><circle class="e" cx="99" cy="99" r="99"/><circle class="f" cx="99" cy="99" r="96"/></g></g></svg>